<mxfile host="Electron" modified="2023-06-20T07:40:58.538Z" agent="Mozilla/5.0 (Windows NT 10.0; Win64; x64) AppleWebKit/537.36 (KHTML, like Gecko) draw.io/21.5.0 Chrome/112.0.5615.204 Electron/24.5.1 Safari/537.36" etag="c-ZehM0ApL1rJnCQKJpQ" version="21.5.0" type="device">
  <diagram id="_N23DIPMtCVGRhZ30gLD" name="第 1 页">
    <mxGraphModel dx="2796" dy="1005" grid="1" gridSize="10" guides="1" tooltips="1" connect="1" arrows="1" fold="1" page="1" pageScale="1" pageWidth="827" pageHeight="1169" background="none" math="0" shadow="0">
      <root>
        <mxCell id="0" />
        <mxCell id="1" parent="0" />
        <mxCell id="vTjlXBZ8A0YJrTSdwNz2-1" value="" style="rounded=0;whiteSpace=wrap;html=1;fontFamily=Helvetica;fontSize=16;glass=0;noLabel=1;" parent="1" vertex="1">
          <mxGeometry x="-370" y="630" width="400" height="240" as="geometry" />
        </mxCell>
        <mxCell id="srLBR-eKNToDPAw0bW0F-1" value="Manager" style="whiteSpace=wrap;html=1;fontStyle=0;fontSize=16;labelBorderColor=none;strokeOpacity=100;fixDash=0;enumerate=0;backgroundOutline=0;" parent="1" vertex="1">
          <mxGeometry x="370" y="259.00000000000006" width="100" height="30" as="geometry" />
        </mxCell>
        <mxCell id="bB3FUnjyc7xPwZkcXDjZ-4" style="edgeStyle=none;shape=connector;rounded=0;comic=0;orthogonalLoop=1;jettySize=auto;html=1;dashed=1;dashPattern=1 2;labelBackgroundColor=default;fontFamily=Helvetica;fontSize=16;fontColor=default;endArrow=classic;strokeColor=default;" parent="1" source="srLBR-eKNToDPAw0bW0F-2" target="AO8aFez6V7OC_21t-UyS-113" edge="1">
          <mxGeometry relative="1" as="geometry" />
        </mxCell>
        <mxCell id="srLBR-eKNToDPAw0bW0F-2" value="Module(Object)" style="whiteSpace=wrap;html=1;shadow=0;fontStyle=0;fontSize=16;strokeOpacity=100;fixDash=0;enumerate=0;backgroundOutline=0;" parent="1" vertex="1">
          <mxGeometry x="355" y="366.9" width="130" height="30" as="geometry" />
        </mxCell>
        <mxCell id="AO8aFez6V7OC_21t-UyS-125" style="edgeStyle=none;shape=connector;rounded=0;orthogonalLoop=1;jettySize=auto;html=1;entryX=1;entryY=0.5;entryDx=0;entryDy=0;dashed=1;dashPattern=1 2;labelBackgroundColor=default;fontFamily=Helvetica;fontSize=16;fontColor=default;startArrow=none;startFill=0;endArrow=classic;endFill=1;strokeColor=default;fixDash=0;enumerate=0;backgroundOutline=0;" parent="1" source="srLBR-eKNToDPAw0bW0F-82" target="AO8aFez6V7OC_21t-UyS-124" edge="1">
          <mxGeometry relative="1" as="geometry" />
        </mxCell>
        <mxCell id="se9XQzJi6xYLOeUyXSgX-72" style="edgeStyle=none;rounded=0;comic=0;orthogonalLoop=1;jettySize=auto;html=1;entryX=0.5;entryY=0;entryDx=0;entryDy=0;dashed=1;dashPattern=1 2;fontFamily=Helvetica;fontSize=16;fontColor=default;endArrow=none;endFill=0;exitX=0.5;exitY=1;exitDx=0;exitDy=0;" parent="1" source="srLBR-eKNToDPAw0bW0F-82" target="AO8aFez6V7OC_21t-UyS-137" edge="1">
          <mxGeometry relative="1" as="geometry" />
        </mxCell>
        <mxCell id="se9XQzJi6xYLOeUyXSgX-73" style="edgeStyle=none;rounded=0;comic=0;orthogonalLoop=1;jettySize=auto;html=1;entryX=0.5;entryY=0;entryDx=0;entryDy=0;dashed=1;dashPattern=1 2;fontFamily=Helvetica;fontSize=16;fontColor=default;endArrow=none;endFill=0;exitX=0.5;exitY=1;exitDx=0;exitDy=0;" parent="1" source="srLBR-eKNToDPAw0bW0F-82" target="se9XQzJi6xYLOeUyXSgX-71" edge="1">
          <mxGeometry relative="1" as="geometry" />
        </mxCell>
        <mxCell id="srLBR-eKNToDPAw0bW0F-110" value="" style="endArrow=classic;html=1;rounded=0;dashed=1;dashPattern=1 2;labelBackgroundColor=default;fontFamily=Helvetica;fontSize=16;fontColor=default;strokeColor=default;exitX=0.5;exitY=1;exitDx=0;exitDy=0;startArrow=none;startFill=0;endFill=1;fontStyle=0;strokeOpacity=100;entryX=0.5;entryY=0;entryDx=0;entryDy=0;fixDash=0;enumerate=0;backgroundOutline=0;" parent="1" source="srLBR-eKNToDPAw0bW0F-1" target="srLBR-eKNToDPAw0bW0F-2" edge="1">
          <mxGeometry relative="1" as="geometry">
            <mxPoint x="390" y="290.00000000000006" as="sourcePoint" />
            <mxPoint x="430" y="390.00000000000006" as="targetPoint" />
          </mxGeometry>
        </mxCell>
        <mxCell id="srLBR-eKNToDPAw0bW0F-112" value="N" style="resizable=0;html=1;align=right;verticalAlign=bottom;shadow=0;fontFamily=Helvetica;fontSize=16;fontColor=default;fontStyle=0;fixDash=0;enumerate=0;backgroundOutline=0;" parent="srLBR-eKNToDPAw0bW0F-110" connectable="0" vertex="1">
          <mxGeometry x="1" relative="1" as="geometry">
            <mxPoint x="6" y="-9" as="offset" />
          </mxGeometry>
        </mxCell>
        <mxCell id="AO8aFez6V7OC_21t-UyS-80" value="1" style="edgeLabel;html=1;align=center;verticalAlign=middle;resizable=0;points=[];fontSize=16;fontFamily=Helvetica;fontColor=default;fixDash=0;enumerate=0;backgroundOutline=0;" parent="srLBR-eKNToDPAw0bW0F-110" vertex="1" connectable="0">
          <mxGeometry x="-0.6447" relative="1" as="geometry">
            <mxPoint x="-2" as="offset" />
          </mxGeometry>
        </mxCell>
        <mxCell id="srLBR-eKNToDPAw0bW0F-82" value="Parser" style="whiteSpace=wrap;html=1;shadow=0;fontStyle=0;strokeColor=default;fontSize=16;strokeOpacity=100;fontColor=#B3B3B3;fixDash=0;enumerate=0;backgroundOutline=0;" parent="1" vertex="1">
          <mxGeometry x="-100" y="658.79" width="100" height="30" as="geometry" />
        </mxCell>
        <mxCell id="AO8aFez6V7OC_21t-UyS-109" style="edgeStyle=none;shape=connector;rounded=0;orthogonalLoop=1;jettySize=auto;html=1;entryX=0.5;entryY=0;entryDx=0;entryDy=0;dashed=1;dashPattern=1 2;labelBackgroundColor=default;fontFamily=Helvetica;fontSize=16;fontColor=default;startArrow=none;startFill=0;endArrow=classic;endFill=1;strokeColor=default;fixDash=0;enumerate=0;backgroundOutline=0;" parent="1" source="AO8aFez6V7OC_21t-UyS-3" target="AO8aFez6V7OC_21t-UyS-96" edge="1">
          <mxGeometry relative="1" as="geometry" />
        </mxCell>
        <mxCell id="VanB3wyzTlclgv52SRCy-1" style="rounded=0;orthogonalLoop=1;jettySize=auto;html=1;entryX=0.5;entryY=0;entryDx=0;entryDy=0;fontSize=16;dashed=1;dashPattern=1 2;startArrow=none;startFill=0;endFill=1;" parent="1" source="AO8aFez6V7OC_21t-UyS-3" target="AO8aFez6V7OC_21t-UyS-103" edge="1">
          <mxGeometry relative="1" as="geometry" />
        </mxCell>
        <mxCell id="9Eu4qxXj4A-x9DAmZvT_-6" style="edgeStyle=none;shape=connector;rounded=0;orthogonalLoop=1;jettySize=auto;html=1;entryX=0.5;entryY=0;entryDx=0;entryDy=0;dashed=1;dashPattern=1 2;labelBackgroundColor=default;fontFamily=Helvetica;fontSize=16;fontColor=default;startArrow=none;startFill=0;endArrow=classic;endFill=1;strokeColor=default;" parent="1" source="AO8aFez6V7OC_21t-UyS-3" target="9Eu4qxXj4A-x9DAmZvT_-3" edge="1">
          <mxGeometry relative="1" as="geometry" />
        </mxCell>
        <mxCell id="AO8aFez6V7OC_21t-UyS-3" value="Render" style="whiteSpace=wrap;html=1;fontStyle=0;fontSize=16;strokeOpacity=100;fixDash=0;enumerate=0;backgroundOutline=0;" parent="1" vertex="1">
          <mxGeometry x="1043.33" y="260.00000000000006" width="100" height="30" as="geometry" />
        </mxCell>
        <mxCell id="AO8aFez6V7OC_21t-UyS-82" style="edgeStyle=none;shape=connector;rounded=0;orthogonalLoop=1;jettySize=auto;html=1;entryX=0.5;entryY=0;entryDx=0;entryDy=0;dashed=1;dashPattern=1 2;labelBackgroundColor=default;fontFamily=Helvetica;fontSize=16;fontColor=default;startArrow=none;startFill=0;endArrow=classic;endFill=1;strokeColor=default;exitX=0.5;exitY=1;exitDx=0;exitDy=0;fixDash=0;enumerate=0;backgroundOutline=0;" parent="1" source="AO8aFez6V7OC_21t-UyS-4" target="AO8aFez6V7OC_21t-UyS-81" edge="1">
          <mxGeometry relative="1" as="geometry" />
        </mxCell>
        <mxCell id="AO8aFez6V7OC_21t-UyS-88" style="edgeStyle=none;shape=connector;rounded=0;orthogonalLoop=1;jettySize=auto;html=1;entryX=0.5;entryY=0;entryDx=0;entryDy=0;dashed=1;dashPattern=1 2;labelBackgroundColor=default;fontFamily=Helvetica;fontSize=16;fontColor=default;startArrow=none;startFill=0;endArrow=classic;endFill=1;strokeColor=default;exitX=0.5;exitY=1;exitDx=0;exitDy=0;fixDash=0;enumerate=0;backgroundOutline=0;" parent="1" source="AO8aFez6V7OC_21t-UyS-4" target="srLBR-eKNToDPAw0bW0F-1" edge="1">
          <mxGeometry relative="1" as="geometry" />
        </mxCell>
        <mxCell id="AO8aFez6V7OC_21t-UyS-90" style="edgeStyle=none;shape=connector;rounded=0;orthogonalLoop=1;jettySize=auto;html=1;dashed=1;dashPattern=1 2;labelBackgroundColor=default;fontFamily=Helvetica;fontSize=16;fontColor=default;startArrow=none;startFill=0;endArrow=classic;endFill=1;strokeColor=default;exitX=0.5;exitY=1;exitDx=0;exitDy=0;entryX=0.5;entryY=0;entryDx=0;entryDy=0;fixDash=0;enumerate=0;backgroundOutline=0;" parent="1" source="AO8aFez6V7OC_21t-UyS-4" target="AO8aFez6V7OC_21t-UyS-3" edge="1">
          <mxGeometry relative="1" as="geometry">
            <mxPoint x="480" y="250" as="targetPoint" />
          </mxGeometry>
        </mxCell>
        <mxCell id="tDQRLC6_PAQmBumFb-kX-22" style="edgeStyle=none;rounded=0;orthogonalLoop=1;jettySize=auto;html=1;entryX=0.5;entryY=0;entryDx=0;entryDy=0;dashed=1;dashPattern=1 2;strokeColor=default;fontSize=16;startArrow=none;startFill=0;endFill=1;" parent="1" source="AO8aFez6V7OC_21t-UyS-4" target="AO8aFez6V7OC_21t-UyS-95" edge="1">
          <mxGeometry relative="1" as="geometry" />
        </mxCell>
        <mxCell id="AO8aFez6V7OC_21t-UyS-4" value="Application" style="whiteSpace=wrap;html=1;fontStyle=0;fontSize=16;labelBorderColor=none;strokeOpacity=100;fixDash=0;enumerate=0;backgroundOutline=0;fillColor=#60a917;strokeColor=#2D7600;fontColor=#ffffff;shadow=0;rounded=0;glass=0;" parent="1" vertex="1">
          <mxGeometry x="370" y="150" width="100" height="30" as="geometry" />
        </mxCell>
        <mxCell id="fwfw3z2ErWo4smF80Zi1-95" style="edgeStyle=none;rounded=0;sketch=0;orthogonalLoop=1;jettySize=auto;html=1;entryX=0.5;entryY=0;entryDx=0;entryDy=0;shadow=0;dashed=1;dashPattern=1 2;fontFamily=Helvetica;fontSize=12;fontColor=default;startArrow=none;startFill=0;strokeColor=default;fixDash=0;enumerate=0;backgroundOutline=0;" parent="1" source="AO8aFez6V7OC_21t-UyS-9" target="fwfw3z2ErWo4smF80Zi1-93" edge="1">
          <mxGeometry relative="1" as="geometry" />
        </mxCell>
        <mxCell id="se9XQzJi6xYLOeUyXSgX-1" value="1" style="edgeLabel;html=1;align=center;verticalAlign=middle;resizable=0;points=[];fixDash=0;enumerate=0;backgroundOutline=0;" parent="fwfw3z2ErWo4smF80Zi1-95" vertex="1" connectable="0">
          <mxGeometry x="-0.5639" y="1" relative="1" as="geometry">
            <mxPoint as="offset" />
          </mxGeometry>
        </mxCell>
        <mxCell id="se9XQzJi6xYLOeUyXSgX-2" value="N" style="edgeLabel;html=1;align=center;verticalAlign=middle;resizable=0;points=[];fixDash=0;enumerate=0;backgroundOutline=0;" parent="fwfw3z2ErWo4smF80Zi1-95" vertex="1" connectable="0">
          <mxGeometry x="0.4094" relative="1" as="geometry">
            <mxPoint as="offset" />
          </mxGeometry>
        </mxCell>
        <mxCell id="AO8aFez6V7OC_21t-UyS-9" value="Surface" style="whiteSpace=wrap;html=1;fontStyle=0;fontSize=16;strokeOpacity=100;fixDash=0;enumerate=0;backgroundOutline=0;" parent="1" vertex="1">
          <mxGeometry x="1283.33" y="430" width="100" height="30" as="geometry" />
        </mxCell>
        <mxCell id="3MFgkbLK2W6pAZ3sTvjC-6" style="rounded=0;orthogonalLoop=1;jettySize=auto;html=1;entryX=0.5;entryY=0;entryDx=0;entryDy=0;fontSize=16;comic=0;dashed=1;dashPattern=1 2;strokeColor=#66B2FF;fontColor=#000000;sketch=0;shadow=0;startArrow=none;startFill=0;fillColor=#1ba1e2;" parent="1" source="AO8aFez6V7OC_21t-UyS-40" target="hfySHGi0D-AIWdHUlQW5-16" edge="1">
          <mxGeometry relative="1" as="geometry" />
        </mxCell>
        <mxCell id="b0SShiwwmZGZxzh6fXLt-8" style="edgeStyle=none;shape=connector;rounded=0;comic=0;orthogonalLoop=1;jettySize=auto;html=1;entryX=0.5;entryY=0;entryDx=0;entryDy=0;dashed=1;dashPattern=1 2;labelBackgroundColor=default;fontFamily=Helvetica;fontSize=16;fontColor=default;endArrow=classic;strokeColor=default;" parent="1" source="AO8aFez6V7OC_21t-UyS-40" target="b0SShiwwmZGZxzh6fXLt-1" edge="1">
          <mxGeometry relative="1" as="geometry" />
        </mxCell>
        <mxCell id="b0SShiwwmZGZxzh6fXLt-9" value="N" style="edgeLabel;html=1;align=center;verticalAlign=middle;resizable=0;points=[];fontSize=16;fontFamily=Helvetica;fontColor=default;" parent="b0SShiwwmZGZxzh6fXLt-8" vertex="1" connectable="0">
          <mxGeometry x="0.7758" relative="1" as="geometry">
            <mxPoint y="-1" as="offset" />
          </mxGeometry>
        </mxCell>
        <mxCell id="b0SShiwwmZGZxzh6fXLt-10" value="1" style="edgeLabel;html=1;align=center;verticalAlign=middle;resizable=0;points=[];fontSize=16;fontFamily=Helvetica;fontColor=default;" parent="b0SShiwwmZGZxzh6fXLt-8" vertex="1" connectable="0">
          <mxGeometry x="-0.8292" y="2" relative="1" as="geometry">
            <mxPoint as="offset" />
          </mxGeometry>
        </mxCell>
        <mxCell id="AO8aFez6V7OC_21t-UyS-40" value="Layer" style="whiteSpace=wrap;html=1;fontStyle=0;fontSize=16;strokeOpacity=100;fixDash=0;enumerate=0;backgroundOutline=0;fillColor=#60a917;strokeColor=#2D7600;fontColor=#ffffff;labelBorderColor=none;shadow=0;rounded=0;glass=0;" parent="1" vertex="1">
          <mxGeometry x="1043.33" y="366.9" width="100" height="30" as="geometry" />
        </mxCell>
        <mxCell id="AO8aFez6V7OC_21t-UyS-41" value="" style="endArrow=classic;html=1;rounded=0;dashed=1;dashPattern=1 2;labelBackgroundColor=default;fontFamily=Helvetica;fontSize=16;fontColor=default;strokeColor=default;exitX=0.5;exitY=1;exitDx=0;exitDy=0;startArrow=none;startFill=0;endFill=1;fontStyle=0;entryX=0.5;entryY=0;entryDx=0;entryDy=0;strokeOpacity=100;fixDash=0;enumerate=0;backgroundOutline=0;" parent="1" source="AO8aFez6V7OC_21t-UyS-3" target="AO8aFez6V7OC_21t-UyS-40" edge="1">
          <mxGeometry relative="1" as="geometry">
            <mxPoint x="840" y="350.00000000000006" as="sourcePoint" />
            <mxPoint x="840" y="450" as="targetPoint" />
          </mxGeometry>
        </mxCell>
        <mxCell id="AO8aFez6V7OC_21t-UyS-57" value="1" style="edgeLabel;html=1;align=center;verticalAlign=middle;resizable=0;points=[];fontSize=16;fontFamily=Helvetica;fontColor=default;fixDash=0;enumerate=0;backgroundOutline=0;" parent="AO8aFez6V7OC_21t-UyS-41" vertex="1" connectable="0">
          <mxGeometry x="-0.6011" y="1" relative="1" as="geometry">
            <mxPoint as="offset" />
          </mxGeometry>
        </mxCell>
        <mxCell id="AO8aFez6V7OC_21t-UyS-58" value="N" style="edgeLabel;html=1;align=center;verticalAlign=middle;resizable=0;points=[];fontSize=16;fontFamily=Helvetica;fontColor=default;fixDash=0;enumerate=0;backgroundOutline=0;" parent="AO8aFez6V7OC_21t-UyS-41" vertex="1" connectable="0">
          <mxGeometry x="0.738" relative="1" as="geometry">
            <mxPoint y="-9" as="offset" />
          </mxGeometry>
        </mxCell>
        <mxCell id="AO8aFez6V7OC_21t-UyS-67" style="edgeStyle=none;shape=connector;rounded=0;orthogonalLoop=1;jettySize=auto;html=1;entryX=0.5;entryY=0;entryDx=0;entryDy=0;dashed=1;dashPattern=1 2;labelBackgroundColor=default;fontFamily=Helvetica;fontSize=16;fontColor=default;startArrow=none;startFill=0;endArrow=classic;endFill=1;strokeColor=default;exitX=0.5;exitY=1;exitDx=0;exitDy=0;strokeOpacity=100;fixDash=0;enumerate=0;backgroundOutline=0;" parent="1" source="AO8aFez6V7OC_21t-UyS-52" target="AO8aFez6V7OC_21t-UyS-9" edge="1">
          <mxGeometry relative="1" as="geometry" />
        </mxCell>
        <mxCell id="AO8aFez6V7OC_21t-UyS-52" value="Instance" style="whiteSpace=wrap;html=1;fontStyle=0;fontSize=16;strokeOpacity=100;fixDash=0;enumerate=0;backgroundOutline=0;" parent="1" vertex="1">
          <mxGeometry x="1283.33" y="366.9" width="100" height="30" as="geometry" />
        </mxCell>
        <mxCell id="AO8aFez6V7OC_21t-UyS-53" style="edgeStyle=none;shape=connector;rounded=0;orthogonalLoop=1;jettySize=auto;html=1;entryX=0.5;entryY=0;entryDx=0;entryDy=0;dashed=1;dashPattern=1 2;labelBackgroundColor=default;fontFamily=Helvetica;fontSize=16;fontColor=default;startArrow=none;startFill=0;endArrow=classic;endFill=1;strokeColor=default;strokeOpacity=100;fixDash=0;enumerate=0;backgroundOutline=0;" parent="1" source="AO8aFez6V7OC_21t-UyS-3" target="AO8aFez6V7OC_21t-UyS-52" edge="1">
          <mxGeometry relative="1" as="geometry" />
        </mxCell>
        <mxCell id="p0tODl2XnqS8dyffp0-s-26" style="edgeStyle=none;shape=connector;rounded=0;comic=0;orthogonalLoop=1;jettySize=auto;html=1;entryX=0.5;entryY=0;entryDx=0;entryDy=0;dashed=1;dashPattern=1 2;labelBackgroundColor=default;fontFamily=Helvetica;fontSize=16;fontColor=default;endArrow=classic;strokeColor=default;" parent="1" source="AO8aFez6V7OC_21t-UyS-81" target="p0tODl2XnqS8dyffp0-s-23" edge="1">
          <mxGeometry relative="1" as="geometry" />
        </mxCell>
        <mxCell id="p0tODl2XnqS8dyffp0-s-27" value="1" style="edgeLabel;html=1;align=center;verticalAlign=middle;resizable=0;points=[];fontSize=16;fontFamily=Helvetica;fontColor=default;" parent="p0tODl2XnqS8dyffp0-s-26" vertex="1" connectable="0">
          <mxGeometry x="-0.8438" y="1" relative="1" as="geometry">
            <mxPoint as="offset" />
          </mxGeometry>
        </mxCell>
        <mxCell id="p0tODl2XnqS8dyffp0-s-28" value="N" style="edgeLabel;html=1;align=center;verticalAlign=middle;resizable=0;points=[];fontSize=16;fontFamily=Helvetica;fontColor=default;" parent="p0tODl2XnqS8dyffp0-s-26" vertex="1" connectable="0">
          <mxGeometry x="0.748" y="-1" relative="1" as="geometry">
            <mxPoint as="offset" />
          </mxGeometry>
        </mxCell>
        <mxCell id="AO8aFez6V7OC_21t-UyS-81" value="Main" style="whiteSpace=wrap;html=1;fontStyle=0;fontSize=16;labelBorderColor=none;strokeOpacity=100;fixDash=0;enumerate=0;backgroundOutline=0;" parent="1" vertex="1">
          <mxGeometry x="180" y="260.00000000000006" width="120" height="30" as="geometry" />
        </mxCell>
        <mxCell id="tDQRLC6_PAQmBumFb-kX-32" value="" style="edgeStyle=none;rounded=0;orthogonalLoop=1;jettySize=auto;html=1;dashed=1;dashPattern=1 2;strokeColor=default;fontSize=16;startArrow=none;startFill=0;endFill=1;fontStyle=0;" parent="1" source="AO8aFez6V7OC_21t-UyS-95" target="tDQRLC6_PAQmBumFb-kX-31" edge="1">
          <mxGeometry relative="1" as="geometry" />
        </mxCell>
        <mxCell id="AO8aFez6V7OC_21t-UyS-95" value="Events" style="whiteSpace=wrap;html=1;fontStyle=0;fontSize=16;labelBorderColor=none;strokeOpacity=100;fixDash=0;enumerate=0;backgroundOutline=0;" parent="1" vertex="1">
          <mxGeometry x="-200" y="260.00000000000006" width="100" height="30" as="geometry" />
        </mxCell>
        <mxCell id="AO8aFez6V7OC_21t-UyS-96" value="Window" style="whiteSpace=wrap;html=1;shadow=0;fontStyle=0;fontSize=16;strokeOpacity=100;fixDash=0;enumerate=0;backgroundOutline=0;" parent="1" vertex="1">
          <mxGeometry x="913.33" y="366.89999999999986" width="100" height="30" as="geometry" />
        </mxCell>
        <mxCell id="AO8aFez6V7OC_21t-UyS-103" value="Dispaly" style="whiteSpace=wrap;html=1;shadow=0;fontStyle=0;fontSize=16;strokeOpacity=100;fixDash=0;enumerate=0;backgroundOutline=0;" parent="1" vertex="1">
          <mxGeometry x="770.33" y="366.89999999999986" width="100" height="30" as="geometry" />
        </mxCell>
        <mxCell id="AO8aFez6V7OC_21t-UyS-132" style="edgeStyle=none;shape=connector;rounded=0;orthogonalLoop=1;jettySize=auto;html=1;entryX=1;entryY=0.5;entryDx=0;entryDy=0;dashed=1;dashPattern=1 2;labelBackgroundColor=default;fontFamily=Helvetica;fontSize=16;fontColor=default;startArrow=none;startFill=0;endArrow=classic;endFill=1;strokeColor=default;exitX=0;exitY=0.5;exitDx=0;exitDy=0;fixDash=0;enumerate=0;backgroundOutline=0;" parent="1" source="AO8aFez6V7OC_21t-UyS-113" target="AO8aFez6V7OC_21t-UyS-131" edge="1">
          <mxGeometry relative="1" as="geometry">
            <mxPoint x="661" y="876.3099999999998" as="sourcePoint" />
            <mxPoint x="671.0000000000002" y="938.8099999999998" as="targetPoint" />
          </mxGeometry>
        </mxCell>
        <mxCell id="fwfw3z2ErWo4smF80Zi1-28" value="1" style="edgeLabel;html=1;align=center;verticalAlign=middle;resizable=0;points=[];fontSize=16;fontFamily=Helvetica;fontColor=default;fixDash=0;enumerate=0;backgroundOutline=0;" parent="AO8aFez6V7OC_21t-UyS-132" vertex="1" connectable="0">
          <mxGeometry x="-0.6617" y="3" relative="1" as="geometry">
            <mxPoint x="-3" as="offset" />
          </mxGeometry>
        </mxCell>
        <mxCell id="se9XQzJi6xYLOeUyXSgX-36" value="N" style="edgeLabel;html=1;align=center;verticalAlign=middle;resizable=0;points=[];fontSize=16;fontFamily=Helvetica;fontColor=default;" parent="AO8aFez6V7OC_21t-UyS-132" vertex="1" connectable="0">
          <mxGeometry x="0.5834" y="3" relative="1" as="geometry">
            <mxPoint as="offset" />
          </mxGeometry>
        </mxCell>
        <mxCell id="hfySHGi0D-AIWdHUlQW5-18" style="edgeStyle=none;rounded=0;orthogonalLoop=1;jettySize=auto;html=1;entryX=0;entryY=0.5;entryDx=0;entryDy=0;fontSize=16;dashed=1;dashPattern=1 2;" parent="1" source="AO8aFez6V7OC_21t-UyS-113" target="fwfw3z2ErWo4smF80Zi1-51" edge="1">
          <mxGeometry relative="1" as="geometry">
            <mxPoint x="1170" y="872.8" as="targetPoint" />
          </mxGeometry>
        </mxCell>
        <mxCell id="hfySHGi0D-AIWdHUlQW5-19" value="1" style="edgeLabel;html=1;align=center;verticalAlign=middle;resizable=0;points=[];" parent="hfySHGi0D-AIWdHUlQW5-18" vertex="1" connectable="0">
          <mxGeometry x="-0.8326" y="1" relative="1" as="geometry">
            <mxPoint as="offset" />
          </mxGeometry>
        </mxCell>
        <mxCell id="hfySHGi0D-AIWdHUlQW5-20" value="N" style="edgeLabel;html=1;align=center;verticalAlign=middle;resizable=0;points=[];" parent="hfySHGi0D-AIWdHUlQW5-18" vertex="1" connectable="0">
          <mxGeometry x="0.7012" relative="1" as="geometry">
            <mxPoint as="offset" />
          </mxGeometry>
        </mxCell>
        <mxCell id="b0SShiwwmZGZxzh6fXLt-40" style="edgeStyle=none;shape=connector;rounded=0;comic=0;orthogonalLoop=1;jettySize=auto;html=1;dashed=1;dashPattern=1 2;labelBackgroundColor=default;fontFamily=Helvetica;fontSize=16;fontColor=default;endArrow=classic;strokeColor=default;exitX=0.5;exitY=1;exitDx=0;exitDy=0;" parent="1" source="AO8aFez6V7OC_21t-UyS-113" target="b0SShiwwmZGZxzh6fXLt-33" edge="1">
          <mxGeometry relative="1" as="geometry" />
        </mxCell>
        <mxCell id="p0tODl2XnqS8dyffp0-s-12" value="N" style="edgeLabel;html=1;align=center;verticalAlign=middle;resizable=0;points=[];fontSize=16;fontFamily=Helvetica;fontColor=default;" parent="b0SShiwwmZGZxzh6fXLt-40" vertex="1" connectable="0">
          <mxGeometry x="0.6625" relative="1" as="geometry">
            <mxPoint as="offset" />
          </mxGeometry>
        </mxCell>
        <mxCell id="p0tODl2XnqS8dyffp0-s-13" value="1" style="edgeLabel;html=1;align=center;verticalAlign=middle;resizable=0;points=[];fontSize=16;fontFamily=Helvetica;fontColor=default;" parent="b0SShiwwmZGZxzh6fXLt-40" vertex="1" connectable="0">
          <mxGeometry x="-0.5776" y="5" relative="1" as="geometry">
            <mxPoint x="-5" y="-3" as="offset" />
          </mxGeometry>
        </mxCell>
        <mxCell id="rj_vMMQdR87xLDk41NYo-19" style="edgeStyle=none;shape=connector;rounded=0;comic=0;orthogonalLoop=1;jettySize=auto;html=1;entryX=0.5;entryY=0;entryDx=0;entryDy=0;dashed=1;dashPattern=1 2;labelBackgroundColor=default;strokeColor=default;fontFamily=Helvetica;fontSize=16;fontColor=default;endArrow=classic;exitX=0.5;exitY=1;exitDx=0;exitDy=0;" edge="1" parent="1" source="AO8aFez6V7OC_21t-UyS-113" target="rj_vMMQdR87xLDk41NYo-15">
          <mxGeometry relative="1" as="geometry" />
        </mxCell>
        <mxCell id="rj_vMMQdR87xLDk41NYo-20" value="N" style="edgeLabel;html=1;align=center;verticalAlign=middle;resizable=0;points=[];fontSize=16;fontFamily=Helvetica;fontColor=default;" vertex="1" connectable="0" parent="rj_vMMQdR87xLDk41NYo-19">
          <mxGeometry x="0.6701" relative="1" as="geometry">
            <mxPoint as="offset" />
          </mxGeometry>
        </mxCell>
        <mxCell id="rj_vMMQdR87xLDk41NYo-21" value="1" style="edgeLabel;html=1;align=center;verticalAlign=middle;resizable=0;points=[];fontSize=16;fontFamily=Helvetica;fontColor=default;" vertex="1" connectable="0" parent="rj_vMMQdR87xLDk41NYo-19">
          <mxGeometry x="-0.5949" y="-2" relative="1" as="geometry">
            <mxPoint as="offset" />
          </mxGeometry>
        </mxCell>
        <mxCell id="AO8aFez6V7OC_21t-UyS-113" value="CstComponent(Object)" style="whiteSpace=wrap;html=1;shadow=0;fontStyle=0;strokeColor=#2D7600;fontSize=16;strokeOpacity=100;fixDash=0;enumerate=0;backgroundOutline=0;fillColor=#60a917;fontColor=#ffffff;labelBorderColor=none;rounded=0;glass=0;" parent="1" vertex="1">
          <mxGeometry x="343" y="842.18" width="176" height="30" as="geometry" />
        </mxCell>
        <mxCell id="AO8aFez6V7OC_21t-UyS-124" value="ComponetAst" style="whiteSpace=wrap;html=1;shadow=0;fontStyle=0;strokeColor=default;fontSize=16;strokeOpacity=100;fixDash=0;enumerate=0;backgroundOutline=0;" parent="1" vertex="1">
          <mxGeometry x="-340" y="658.7899999999998" width="100" height="30" as="geometry" />
        </mxCell>
        <mxCell id="AO8aFez6V7OC_21t-UyS-131" value="CstComponent" style="whiteSpace=wrap;html=1;shadow=0;fontStyle=0;strokeColor=default;fontSize=16;strokeOpacity=100;fixDash=0;enumerate=0;backgroundOutline=0;" parent="1" vertex="1">
          <mxGeometry x="76.79" y="842.18" width="150" height="30" as="geometry" />
        </mxCell>
        <mxCell id="AO8aFez6V7OC_21t-UyS-137" value="ImportAst" style="whiteSpace=wrap;html=1;shadow=0;fontStyle=0;strokeColor=default;fontSize=16;strokeOpacity=100;fixDash=0;enumerate=0;backgroundOutline=0;" parent="1" vertex="1">
          <mxGeometry x="-340" y="816.5099999999999" width="100" height="30" as="geometry" />
        </mxCell>
        <mxCell id="fwfw3z2ErWo4smF80Zi1-50" style="edgeStyle=none;rounded=0;orthogonalLoop=1;jettySize=auto;html=1;entryX=0.5;entryY=0;entryDx=0;entryDy=0;dashed=1;dashPattern=1 2;fontFamily=Helvetica;fontSize=12;fontColor=#FF1414;strokeColor=default;exitX=0.501;exitY=1.044;exitDx=0;exitDy=0;exitPerimeter=0;fixDash=0;enumerate=0;backgroundOutline=0;" parent="1" source="fwfw3z2ErWo4smF80Zi1-42" target="AO8aFez6V7OC_21t-UyS-4" edge="1">
          <mxGeometry relative="1" as="geometry">
            <mxPoint x="650" y="80" as="sourcePoint" />
          </mxGeometry>
        </mxCell>
        <mxCell id="fwfw3z2ErWo4smF80Zi1-42" value="default: One to One&amp;nbsp;" style="text;html=1;align=left;verticalAlign=middle;resizable=0;points=[];autosize=1;strokeColor=none;fillColor=none;fontSize=12;fontFamily=Helvetica;fontColor=#B5739D;glass=0;sketch=0;shadow=0;labelBackgroundColor=default;labelBorderColor=none;labelPosition=center;verticalLabelPosition=middle;fixDash=0;enumerate=0;backgroundOutline=0;" parent="1" vertex="1">
          <mxGeometry x="355" y="80" width="130" height="30" as="geometry" />
        </mxCell>
        <mxCell id="tDQRLC6_PAQmBumFb-kX-6" style="edgeStyle=none;rounded=0;orthogonalLoop=1;jettySize=auto;html=1;entryX=0.5;entryY=1;entryDx=0;entryDy=0;dashed=1;dashPattern=1 2;" parent="1" source="fwfw3z2ErWo4smF80Zi1-51" target="fwfw3z2ErWo4smF80Zi1-93" edge="1">
          <mxGeometry relative="1" as="geometry" />
        </mxCell>
        <mxCell id="fwfw3z2ErWo4smF80Zi1-76" value="LBox" style="whiteSpace=wrap;html=1;shadow=1;fontStyle=0;strokeColor=default;fontSize=16;strokeOpacity=100;fillColor=default;fixDash=0;enumerate=0;backgroundOutline=0;" parent="1" vertex="1">
          <mxGeometry x="793.41" y="1492.62" width="100" height="30" as="geometry" />
        </mxCell>
        <mxCell id="jTYFFrn-AGd4crBV5h1Q-5" style="edgeStyle=none;shape=connector;rounded=0;comic=0;orthogonalLoop=1;jettySize=auto;html=1;entryX=0.5;entryY=1;entryDx=0;entryDy=0;dashed=1;dashPattern=1 2;labelBackgroundColor=default;fontFamily=Helvetica;fontSize=16;fontColor=#000000;endArrow=classic;strokeColor=#66B2FF;sketch=0;shadow=0;startArrow=none;startFill=0;" parent="1" source="AO8aFez6V7OC_21t-UyS-114" target="b0SShiwwmZGZxzh6fXLt-1" edge="1">
          <mxGeometry relative="1" as="geometry" />
        </mxCell>
        <mxCell id="AO8aFez6V7OC_21t-UyS-114" value="Widget(Object)" style="whiteSpace=wrap;html=1;shadow=0;fontStyle=0;strokeColor=default;fontSize=16;strokeOpacity=100;fixDash=0;enumerate=0;backgroundOutline=0;fillColor=default;fontColor=default;labelBorderColor=none;rounded=0;glass=0;" parent="1" vertex="1">
          <mxGeometry x="779.33" y="1282.18" width="130" height="30" as="geometry" />
        </mxCell>
        <mxCell id="fwfw3z2ErWo4smF80Zi1-86" style="edgeStyle=none;rounded=0;sketch=0;orthogonalLoop=1;jettySize=auto;html=1;entryX=0.5;entryY=1;entryDx=0;entryDy=0;shadow=0;fontFamily=Helvetica;fontSize=16;fontColor=#000000;startArrow=none;startFill=0;strokeColor=#66B2FF;fixDash=0;enumerate=0;backgroundOutline=0;comic=0;dashed=1;dashPattern=1 2;" parent="1" source="fwfw3z2ErWo4smF80Zi1-85" target="AO8aFez6V7OC_21t-UyS-114" edge="1">
          <mxGeometry relative="1" as="geometry">
            <mxPoint x="424" y="1369.6999999999998" as="targetPoint" />
          </mxGeometry>
        </mxCell>
        <mxCell id="fwfw3z2ErWo4smF80Zi1-85" value="Image" style="whiteSpace=wrap;html=1;shadow=1;fontStyle=0;strokeColor=default;fontSize=16;strokeOpacity=100;labelBackgroundColor=none;fillColor=default;fixDash=0;enumerate=0;backgroundOutline=0;" parent="1" vertex="1">
          <mxGeometry x="590" y="1410.34" width="100" height="30" as="geometry" />
        </mxCell>
        <mxCell id="fwfw3z2ErWo4smF80Zi1-87" value="Text" style="whiteSpace=wrap;html=1;shadow=1;fontStyle=0;strokeColor=default;fontSize=16;strokeOpacity=100;labelBackgroundColor=none;fillColor=default;fixDash=0;enumerate=0;backgroundOutline=0;" parent="1" vertex="1">
          <mxGeometry x="590" y="1532.62" width="100" height="30" as="geometry" />
        </mxCell>
        <mxCell id="fwfw3z2ErWo4smF80Zi1-89" value="GamePlay" style="whiteSpace=wrap;html=1;shadow=1;fontStyle=0;strokeColor=default;fontSize=16;strokeOpacity=100;labelBackgroundColor=none;fillColor=default;fixDash=0;enumerate=0;backgroundOutline=0;" parent="1" vertex="1">
          <mxGeometry x="590" y="1452.6199999999997" width="100" height="30" as="geometry" />
        </mxCell>
        <mxCell id="fwfw3z2ErWo4smF80Zi1-93" value="Context" style="whiteSpace=wrap;html=1;fontStyle=0;fontSize=16;strokeOpacity=100;fixDash=0;enumerate=0;backgroundOutline=0;" parent="1" vertex="1">
          <mxGeometry x="1283.33" y="528.79" width="100" height="30" as="geometry" />
        </mxCell>
        <mxCell id="se9XQzJi6xYLOeUyXSgX-16" value="Canvas" style="whiteSpace=wrap;html=1;shadow=1;fontStyle=0;strokeColor=default;fontSize=16;strokeOpacity=100;labelBackgroundColor=none;fillColor=default;fixDash=0;enumerate=0;backgroundOutline=0;" parent="1" vertex="1">
          <mxGeometry x="590" y="1492.6199999999997" width="100" height="30" as="geometry" />
        </mxCell>
        <mxCell id="se9XQzJi6xYLOeUyXSgX-71" value="StyleAst" style="whiteSpace=wrap;html=1;shadow=0;fontStyle=0;strokeColor=default;fontSize=16;strokeOpacity=100;fixDash=0;enumerate=0;backgroundOutline=0;" parent="1" vertex="1">
          <mxGeometry x="-340" y="730.6599999999999" width="100" height="30" as="geometry" />
        </mxCell>
        <mxCell id="jTYFFrn-AGd4crBV5h1Q-4" style="edgeStyle=none;shape=connector;rounded=0;comic=0;orthogonalLoop=1;jettySize=auto;html=1;entryX=0.5;entryY=1;entryDx=0;entryDy=0;dashed=1;dashPattern=1 2;labelBackgroundColor=default;fontFamily=Helvetica;fontSize=16;fontColor=#000000;endArrow=classic;strokeColor=#66B2FF;sketch=0;shadow=0;startArrow=none;startFill=0;" parent="1" source="aZyg1DhBIsQEchSUXw_Y-1" target="AO8aFez6V7OC_21t-UyS-114" edge="1">
          <mxGeometry relative="1" as="geometry" />
        </mxCell>
        <mxCell id="aZyg1DhBIsQEchSUXw_Y-1" value="LGrid" style="whiteSpace=wrap;html=1;shadow=1;fontStyle=0;strokeColor=default;fontSize=16;strokeOpacity=100;fillColor=default;fixDash=0;enumerate=0;backgroundOutline=0;" parent="1" vertex="1">
          <mxGeometry x="793.41" y="1410.3399999999997" width="100" height="30" as="geometry" />
        </mxCell>
        <mxCell id="aZyg1DhBIsQEchSUXw_Y-4" value="LFlow" style="whiteSpace=wrap;html=1;shadow=1;fontStyle=0;strokeColor=default;fontSize=16;strokeOpacity=100;fillColor=default;fixDash=0;enumerate=0;backgroundOutline=0;" parent="1" vertex="1">
          <mxGeometry x="793.41" y="1452.1800000000003" width="100" height="30.44" as="geometry" />
        </mxCell>
        <mxCell id="lHMZdkzsUEGBkxSQ9ku1-1" value="LDot" style="whiteSpace=wrap;html=1;shadow=1;fontStyle=0;strokeColor=default;fontSize=16;strokeOpacity=100;fillColor=default;fixDash=0;enumerate=0;backgroundOutline=0;" parent="1" vertex="1">
          <mxGeometry x="793.41" y="1532.62" width="100" height="30" as="geometry" />
        </mxCell>
        <mxCell id="tDQRLC6_PAQmBumFb-kX-31" value="Event" style="whiteSpace=wrap;html=1;fontStyle=0;fontSize=16;labelBorderColor=none;strokeOpacity=100;fixDash=0;enumerate=0;backgroundOutline=0;fillColor=#60a917;strokeColor=#2D7600;fontColor=#ffffff;shadow=0;rounded=0;glass=0;" parent="1" vertex="1">
          <mxGeometry x="-200" y="366.9000000000001" width="100" height="30" as="geometry" />
        </mxCell>
        <mxCell id="3qlGYJx5RQ6duNaz_BGI-19" style="shape=connector;rounded=0;orthogonalLoop=1;jettySize=auto;html=1;entryX=0;entryY=0.5;entryDx=0;entryDy=0;dashed=1;dashPattern=1 2;labelBackgroundColor=default;fontFamily=Helvetica;fontSize=16;fontColor=default;endArrow=classic;strokeColor=default;exitX=0.5;exitY=1;exitDx=0;exitDy=0;" parent="1" source="b0SShiwwmZGZxzh6fXLt-1" target="fwfw3z2ErWo4smF80Zi1-51" edge="1">
          <mxGeometry relative="1" as="geometry">
            <mxPoint x="1000" y="742.7199999999998" as="sourcePoint" />
          </mxGeometry>
        </mxCell>
        <mxCell id="3qlGYJx5RQ6duNaz_BGI-20" value="1" style="edgeLabel;html=1;align=center;verticalAlign=middle;resizable=0;points=[];fontSize=16;fontFamily=Helvetica;fontColor=default;" parent="3qlGYJx5RQ6duNaz_BGI-19" vertex="1" connectable="0">
          <mxGeometry x="-0.7335" relative="1" as="geometry">
            <mxPoint as="offset" />
          </mxGeometry>
        </mxCell>
        <mxCell id="3qlGYJx5RQ6duNaz_BGI-21" value="N" style="edgeLabel;html=1;align=center;verticalAlign=middle;resizable=0;points=[];fontSize=16;fontFamily=Helvetica;fontColor=default;" parent="3qlGYJx5RQ6duNaz_BGI-19" vertex="1" connectable="0">
          <mxGeometry x="0.6435" y="-1" relative="1" as="geometry">
            <mxPoint as="offset" />
          </mxGeometry>
        </mxCell>
        <mxCell id="b0SShiwwmZGZxzh6fXLt-25" style="edgeStyle=none;shape=connector;rounded=0;comic=0;orthogonalLoop=1;jettySize=auto;html=1;entryX=0.5;entryY=0;entryDx=0;entryDy=0;dashed=1;dashPattern=1 2;labelBackgroundColor=default;fontFamily=Helvetica;fontSize=16;fontColor=default;endArrow=classic;strokeColor=default;" parent="1" source="VanB3wyzTlclgv52SRCy-10" target="b0SShiwwmZGZxzh6fXLt-31" edge="1">
          <mxGeometry relative="1" as="geometry">
            <mxPoint x="1528.0549999999998" y="650" as="targetPoint" />
          </mxGeometry>
        </mxCell>
        <mxCell id="VanB3wyzTlclgv52SRCy-10" value="Application" style="whiteSpace=wrap;html=1;fontStyle=0;fontSize=16;labelBorderColor=none;strokeOpacity=100;fixDash=0;enumerate=0;backgroundOutline=0;shadow=0;fillColor=#60a917;strokeColor=#2D7600;fontColor=#ffffff;rounded=0;glass=0;" parent="1" vertex="1">
          <mxGeometry x="1478.05" y="528.79" width="131.95" height="30" as="geometry" />
        </mxCell>
        <mxCell id="hfySHGi0D-AIWdHUlQW5-15" value="AbsLayer" style="whiteSpace=wrap;html=1;fontStyle=0;fontSize=16;strokeOpacity=100;fixDash=0;enumerate=0;backgroundOutline=0;fillColor=default;strokeColor=default;fontColor=default;labelBorderColor=none;shadow=1;rounded=0;glass=0;" parent="1" vertex="1">
          <mxGeometry x="1043.33" y="569" width="100" height="30" as="geometry" />
        </mxCell>
        <mxCell id="hfySHGi0D-AIWdHUlQW5-16" value="BoxLayer" style="whiteSpace=wrap;html=1;fontStyle=0;fontSize=16;strokeOpacity=100;fixDash=0;enumerate=0;backgroundOutline=0;fillColor=default;strokeColor=default;fontColor=default;labelBorderColor=none;shadow=1;rounded=0;glass=0;" parent="1" vertex="1">
          <mxGeometry x="1043.3300000000002" y="510" width="100" height="30" as="geometry" />
        </mxCell>
        <mxCell id="b0SShiwwmZGZxzh6fXLt-20" style="edgeStyle=none;shape=connector;rounded=0;comic=0;orthogonalLoop=1;jettySize=auto;html=1;entryX=0.5;entryY=0;entryDx=0;entryDy=0;dashed=1;dashPattern=1 2;labelBackgroundColor=default;fontFamily=Helvetica;fontSize=16;fontColor=default;endArrow=classic;strokeColor=default;" parent="1" source="3MFgkbLK2W6pAZ3sTvjC-19" target="b0SShiwwmZGZxzh6fXLt-1" edge="1">
          <mxGeometry relative="1" as="geometry" />
        </mxCell>
        <mxCell id="3MFgkbLK2W6pAZ3sTvjC-19" value="LBody(CstNode)" style="whiteSpace=wrap;html=1;shadow=0;fontStyle=0;strokeColor=default;fontSize=16;strokeOpacity=100;fixDash=0;enumerate=0;backgroundOutline=0;fillColor=default;fontColor=default;labelBorderColor=none;rounded=0;glass=0;" parent="1" vertex="1">
          <mxGeometry x="758.41" y="542.16" width="170" height="30" as="geometry" />
        </mxCell>
        <mxCell id="pf9HwXxPTRLERSukKGTt-1" value="PassLayer" style="whiteSpace=wrap;html=1;fontStyle=0;fontSize=16;strokeOpacity=100;fixDash=0;enumerate=0;backgroundOutline=0;fillColor=default;strokeColor=default;fontColor=default;labelBorderColor=none;shadow=1;rounded=0;glass=0;" parent="1" vertex="1">
          <mxGeometry x="1043.33" y="620" width="100" height="30" as="geometry" />
        </mxCell>
        <mxCell id="pf9HwXxPTRLERSukKGTt-3" value="RichBox" style="whiteSpace=wrap;html=1;shadow=1;fontStyle=0;strokeColor=default;fontSize=16;strokeOpacity=100;fillColor=default;fixDash=0;enumerate=0;backgroundOutline=0;" parent="1" vertex="1">
          <mxGeometry x="590" y="1570.54" width="100" height="30" as="geometry" />
        </mxCell>
        <mxCell id="pf9HwXxPTRLERSukKGTt-4" value="Video" style="whiteSpace=wrap;html=1;shadow=1;fontStyle=0;strokeColor=default;fontSize=16;strokeOpacity=100;labelBackgroundColor=none;fillColor=default;fixDash=0;enumerate=0;backgroundOutline=0;" parent="1" vertex="1">
          <mxGeometry x="590" y="1610.54" width="100" height="30" as="geometry" />
        </mxCell>
        <mxCell id="b0SShiwwmZGZxzh6fXLt-1" value="CstNode(Object)" style="whiteSpace=wrap;html=1;shadow=0;fontStyle=0;strokeColor=#2D7600;fontSize=16;strokeOpacity=100;fixDash=0;enumerate=0;backgroundOutline=0;fillColor=#60a917;fontColor=#ffffff;labelBorderColor=none;rounded=0;glass=0;" parent="1" vertex="1">
          <mxGeometry x="746.91" y="673.16" width="193" height="30" as="geometry" />
        </mxCell>
        <mxCell id="fwfw3z2ErWo4smF80Zi1-41" value="CssPair" style="whiteSpace=wrap;html=1;fontStyle=0;fontSize=16;strokeOpacity=100;fixDash=0;enumerate=0;backgroundOutline=0;" parent="1" vertex="1">
          <mxGeometry x="1283.3300000000006" y="956.0799999999999" width="100" height="30" as="geometry" />
        </mxCell>
        <mxCell id="fwfw3z2ErWo4smF80Zi1-56" style="edgeStyle=none;rounded=0;orthogonalLoop=1;jettySize=auto;html=1;entryX=0.5;entryY=0;entryDx=0;entryDy=0;dashed=1;dashPattern=1 2;fontFamily=Helvetica;fontSize=16;fontColor=default;strokeColor=default;fixDash=0;enumerate=0;backgroundOutline=0;" parent="1" source="fwfw3z2ErWo4smF80Zi1-51" target="fwfw3z2ErWo4smF80Zi1-41" edge="1">
          <mxGeometry relative="1" as="geometry" />
        </mxCell>
        <mxCell id="fwfw3z2ErWo4smF80Zi1-57" value="1" style="edgeLabel;html=1;align=center;verticalAlign=middle;resizable=0;points=[];fontSize=16;fontFamily=Helvetica;fontColor=default;fixDash=0;enumerate=0;backgroundOutline=0;" parent="fwfw3z2ErWo4smF80Zi1-56" vertex="1" connectable="0">
          <mxGeometry x="-0.6837" relative="1" as="geometry">
            <mxPoint as="offset" />
          </mxGeometry>
        </mxCell>
        <mxCell id="fwfw3z2ErWo4smF80Zi1-58" value="N" style="edgeLabel;html=1;align=center;verticalAlign=middle;resizable=0;points=[];fontSize=16;fontFamily=Helvetica;fontColor=default;fixDash=0;enumerate=0;backgroundOutline=0;" parent="fwfw3z2ErWo4smF80Zi1-56" vertex="1" connectable="0">
          <mxGeometry x="0.6167" y="1" relative="1" as="geometry">
            <mxPoint as="offset" />
          </mxGeometry>
        </mxCell>
        <mxCell id="fwfw3z2ErWo4smF80Zi1-51" value="CssGroup" style="whiteSpace=wrap;html=1;fontStyle=0;fontSize=16;strokeOpacity=100;fixDash=0;enumerate=0;backgroundOutline=0;" parent="1" vertex="1">
          <mxGeometry x="1283.3300000000006" y="842.18" width="100" height="30" as="geometry" />
        </mxCell>
        <mxCell id="3qlGYJx5RQ6duNaz_BGI-5" value="CssValue" style="whiteSpace=wrap;html=1;fontStyle=0;fontSize=16;strokeOpacity=100;fixDash=0;enumerate=0;backgroundOutline=0;" parent="1" vertex="1">
          <mxGeometry x="1482" y="1080" width="131" height="30" as="geometry" />
        </mxCell>
        <mxCell id="3qlGYJx5RQ6duNaz_BGI-8" style="edgeStyle=none;shape=connector;rounded=0;orthogonalLoop=1;jettySize=auto;html=1;dashed=1;dashPattern=1 2;labelBackgroundColor=default;fontFamily=Helvetica;fontSize=16;fontColor=default;endArrow=classic;strokeColor=default;" parent="1" source="3qlGYJx5RQ6duNaz_BGI-7" target="3qlGYJx5RQ6duNaz_BGI-5" edge="1">
          <mxGeometry relative="1" as="geometry">
            <mxPoint x="1633" y="1090" as="targetPoint" />
          </mxGeometry>
        </mxCell>
        <mxCell id="3qlGYJx5RQ6duNaz_BGI-9" value="1" style="edgeLabel;html=1;align=center;verticalAlign=middle;resizable=0;points=[];fontSize=16;fontFamily=Helvetica;fontColor=default;" parent="3qlGYJx5RQ6duNaz_BGI-8" vertex="1" connectable="0">
          <mxGeometry x="-0.7479" y="-1" relative="1" as="geometry">
            <mxPoint x="-1" as="offset" />
          </mxGeometry>
        </mxCell>
        <mxCell id="3qlGYJx5RQ6duNaz_BGI-10" value="N" style="edgeLabel;html=1;align=center;verticalAlign=middle;resizable=0;points=[];fontSize=16;fontFamily=Helvetica;fontColor=default;" parent="3qlGYJx5RQ6duNaz_BGI-8" vertex="1" connectable="0">
          <mxGeometry x="0.7784" y="-1" relative="1" as="geometry">
            <mxPoint y="1" as="offset" />
          </mxGeometry>
        </mxCell>
        <mxCell id="3qlGYJx5RQ6duNaz_BGI-7" value="CssValueNode" style="whiteSpace=wrap;html=1;fontStyle=0;fontSize=16;strokeOpacity=100;fixDash=0;enumerate=0;backgroundOutline=0;glass=0;" parent="1" vertex="1">
          <mxGeometry x="1677" y="1080" width="131" height="30" as="geometry" />
        </mxCell>
        <mxCell id="3qlGYJx5RQ6duNaz_BGI-13" style="edgeStyle=none;shape=connector;rounded=0;orthogonalLoop=1;jettySize=auto;html=1;entryX=0.5;entryY=0;entryDx=0;entryDy=0;dashed=1;dashPattern=1 2;labelBackgroundColor=default;fontFamily=Helvetica;fontSize=16;fontColor=default;endArrow=classic;strokeColor=default;" parent="1" source="3qlGYJx5RQ6duNaz_BGI-11" target="3qlGYJx5RQ6duNaz_BGI-7" edge="1">
          <mxGeometry relative="1" as="geometry" />
        </mxCell>
        <mxCell id="3qlGYJx5RQ6duNaz_BGI-11" value="CssValueClass" style="whiteSpace=wrap;html=1;fontStyle=0;fontSize=16;strokeOpacity=100;fixDash=0;enumerate=0;backgroundOutline=0;glass=0;" parent="1" vertex="1">
          <mxGeometry x="1679" y="1010" width="131" height="30" as="geometry" />
        </mxCell>
        <mxCell id="3qlGYJx5RQ6duNaz_BGI-12" value="CssValueData" style="whiteSpace=wrap;html=1;fontStyle=0;fontSize=16;strokeOpacity=100;fixDash=0;enumerate=0;backgroundOutline=0;glass=0;" parent="1" vertex="1">
          <mxGeometry x="1482.0000000000002" y="1010" width="131" height="30" as="geometry" />
        </mxCell>
        <mxCell id="b0SShiwwmZGZxzh6fXLt-26" style="edgeStyle=none;shape=connector;rounded=0;comic=0;orthogonalLoop=1;jettySize=auto;html=1;entryX=0.5;entryY=0;entryDx=0;entryDy=0;dashed=1;dashPattern=1 2;labelBackgroundColor=default;fontFamily=Helvetica;fontSize=16;fontColor=default;endArrow=classic;strokeColor=default;" parent="1" source="b0SShiwwmZGZxzh6fXLt-22" target="fwfw3z2ErWo4smF80Zi1-51" edge="1">
          <mxGeometry relative="1" as="geometry" />
        </mxCell>
        <mxCell id="b0SShiwwmZGZxzh6fXLt-27" value="1" style="edgeLabel;html=1;align=center;verticalAlign=middle;resizable=0;points=[];fontSize=16;fontFamily=Helvetica;fontColor=default;" parent="b0SShiwwmZGZxzh6fXLt-26" vertex="1" connectable="0">
          <mxGeometry x="-0.7769" y="1" relative="1" as="geometry">
            <mxPoint as="offset" />
          </mxGeometry>
        </mxCell>
        <mxCell id="b0SShiwwmZGZxzh6fXLt-28" value="N" style="edgeLabel;html=1;align=center;verticalAlign=middle;resizable=0;points=[];fontSize=16;fontFamily=Helvetica;fontColor=default;" parent="b0SShiwwmZGZxzh6fXLt-26" vertex="1" connectable="0">
          <mxGeometry x="0.6611" y="4" relative="1" as="geometry">
            <mxPoint as="offset" />
          </mxGeometry>
        </mxCell>
        <mxCell id="b0SShiwwmZGZxzh6fXLt-22" value="CssEnv(Object)" style="whiteSpace=wrap;html=1;fontStyle=0;fontSize=16;strokeOpacity=100;fixDash=0;enumerate=0;backgroundOutline=0;" parent="1" vertex="1">
          <mxGeometry x="1480" y="730.66" width="129.45" height="30" as="geometry" />
        </mxCell>
        <mxCell id="b0SShiwwmZGZxzh6fXLt-31" value="GStyle(CssEnv)" style="whiteSpace=wrap;html=1;shadow=0;fontStyle=0;strokeColor=default;fontSize=16;strokeOpacity=100;fixDash=0;enumerate=0;backgroundOutline=0;fillColor=default;fontColor=default;labelBorderColor=none;rounded=0;glass=0;" parent="1" vertex="1">
          <mxGeometry x="1478.05" y="640" width="130" height="30" as="geometry" />
        </mxCell>
        <mxCell id="b0SShiwwmZGZxzh6fXLt-33" value="ComStyle" style="whiteSpace=wrap;html=1;shadow=0;fontStyle=0;strokeColor=default;fontSize=16;strokeOpacity=100;fixDash=0;enumerate=0;backgroundOutline=0;" parent="1" vertex="1">
          <mxGeometry x="160" y="1020" width="103" height="30" as="geometry" />
        </mxCell>
        <mxCell id="b0SShiwwmZGZxzh6fXLt-49" style="edgeStyle=none;shape=connector;rounded=0;comic=0;orthogonalLoop=1;jettySize=auto;html=1;entryX=0.5;entryY=0;entryDx=0;entryDy=0;dashed=1;dashPattern=1 2;labelBackgroundColor=default;fontFamily=Helvetica;fontSize=16;fontColor=default;endArrow=classic;strokeColor=default;" parent="1" source="b0SShiwwmZGZxzh6fXLt-42" target="b0SShiwwmZGZxzh6fXLt-47" edge="1">
          <mxGeometry relative="1" as="geometry" />
        </mxCell>
        <mxCell id="b0SShiwwmZGZxzh6fXLt-42" value="Constraint" style="whiteSpace=wrap;html=1;shadow=0;fontStyle=0;strokeColor=default;fontSize=16;strokeOpacity=100;fixDash=0;enumerate=0;backgroundOutline=0;fillColor=default;fontColor=default;labelBorderColor=none;rounded=0;glass=0;" parent="1" vertex="1">
          <mxGeometry x="980" y="1280.5400000000002" width="134" height="30" as="geometry" />
        </mxCell>
        <mxCell id="b0SShiwwmZGZxzh6fXLt-47" value="ParentConstraint" style="whiteSpace=wrap;html=1;shadow=0;fontStyle=0;strokeColor=default;fontSize=16;strokeOpacity=100;fixDash=0;enumerate=0;backgroundOutline=0;fillColor=default;fontColor=default;labelBorderColor=none;rounded=0;glass=0;" parent="1" vertex="1">
          <mxGeometry x="980" y="1410.3400000000001" width="134" height="30" as="geometry" />
        </mxCell>
        <mxCell id="b0SShiwwmZGZxzh6fXLt-50" value="calc(100%)" style="whiteSpace=wrap;html=1;shadow=0;fontStyle=0;strokeColor=default;fontSize=16;strokeOpacity=100;fixDash=0;enumerate=0;backgroundOutline=0;fillColor=default;fontColor=default;labelBorderColor=none;rounded=0;glass=0;" parent="1" vertex="1">
          <mxGeometry x="980" y="1492.6200000000001" width="134" height="30" as="geometry" />
        </mxCell>
        <mxCell id="b0SShiwwmZGZxzh6fXLt-51" value="equal width,height" style="whiteSpace=wrap;html=1;shadow=0;fontStyle=0;strokeColor=default;fontSize=16;strokeOpacity=100;fixDash=0;enumerate=0;backgroundOutline=0;fillColor=default;fontColor=default;labelBorderColor=none;rounded=0;glass=0;" parent="1" vertex="1">
          <mxGeometry x="980" y="1452.6200000000001" width="134" height="30" as="geometry" />
        </mxCell>
        <mxCell id="b0SShiwwmZGZxzh6fXLt-58" value="KeyEvent" style="whiteSpace=wrap;html=1;fontStyle=0;fontSize=16;labelBorderColor=none;strokeOpacity=100;fixDash=0;enumerate=0;backgroundOutline=0;fillColor=default;strokeColor=default;fontColor=default;shadow=0;rounded=0;glass=0;" parent="1" vertex="1">
          <mxGeometry x="-790" y="2260.8799999999997" width="160" height="30" as="geometry" />
        </mxCell>
        <mxCell id="qDr9knophbPoSAZElDER-20" style="edgeStyle=none;shape=connector;rounded=0;comic=0;orthogonalLoop=1;jettySize=auto;html=1;entryX=0;entryY=0.5;entryDx=0;entryDy=0;dashed=1;dashPattern=1 2;labelBackgroundColor=default;fontFamily=Helvetica;fontSize=16;fontColor=default;endArrow=classic;strokeColor=default;" parent="1" source="KetMbmqk3JNc-oJEFXoh-4" target="KetMbmqk3JNc-oJEFXoh-51" edge="1">
          <mxGeometry relative="1" as="geometry" />
        </mxCell>
        <mxCell id="qDr9knophbPoSAZElDER-21" value="1" style="edgeLabel;html=1;align=center;verticalAlign=middle;resizable=0;points=[];fontSize=16;fontFamily=Helvetica;fontColor=default;" parent="qDr9knophbPoSAZElDER-20" vertex="1" connectable="0">
          <mxGeometry x="-0.8" y="-1" relative="1" as="geometry">
            <mxPoint as="offset" />
          </mxGeometry>
        </mxCell>
        <mxCell id="qDr9knophbPoSAZElDER-22" value="N" style="edgeLabel;html=1;align=center;verticalAlign=middle;resizable=0;points=[];fontSize=16;fontFamily=Helvetica;fontColor=default;" parent="qDr9knophbPoSAZElDER-20" vertex="1" connectable="0">
          <mxGeometry x="0.5472" y="3" relative="1" as="geometry">
            <mxPoint y="2" as="offset" />
          </mxGeometry>
        </mxCell>
        <mxCell id="p0tODl2XnqS8dyffp0-s-7" style="edgeStyle=none;shape=connector;rounded=0;comic=0;orthogonalLoop=1;jettySize=auto;html=1;entryX=0.5;entryY=1;entryDx=0;entryDy=0;dashed=1;dashPattern=1 2;labelBackgroundColor=default;fontFamily=Helvetica;fontSize=16;fontColor=default;endArrow=classic;strokeColor=default;" parent="1" source="KetMbmqk3JNc-oJEFXoh-4" target="GgQH_QHnAQB_JmUzbBLz-4" edge="1">
          <mxGeometry relative="1" as="geometry" />
        </mxCell>
        <mxCell id="p0tODl2XnqS8dyffp0-s-8" value="N" style="edgeLabel;html=1;align=center;verticalAlign=middle;resizable=0;points=[];fontSize=16;fontFamily=Helvetica;fontColor=default;" parent="p0tODl2XnqS8dyffp0-s-7" vertex="1" connectable="0">
          <mxGeometry x="0.8193" y="-2" relative="1" as="geometry">
            <mxPoint as="offset" />
          </mxGeometry>
        </mxCell>
        <mxCell id="p0tODl2XnqS8dyffp0-s-9" value="1" style="edgeLabel;html=1;align=center;verticalAlign=middle;resizable=0;points=[];fontSize=16;fontFamily=Helvetica;fontColor=default;" parent="p0tODl2XnqS8dyffp0-s-7" vertex="1" connectable="0">
          <mxGeometry x="-0.8165" relative="1" as="geometry">
            <mxPoint as="offset" />
          </mxGeometry>
        </mxCell>
        <mxCell id="KetMbmqk3JNc-oJEFXoh-4" value="CstNode(Object)" style="whiteSpace=wrap;html=1;shadow=0;fontStyle=0;strokeColor=#2D7600;fontSize=16;strokeOpacity=100;fixDash=0;enumerate=0;backgroundOutline=0;fillColor=#60a917;fontColor=#ffffff;labelBorderColor=none;rounded=0;glass=0;" parent="1" vertex="1">
          <mxGeometry x="-500" y="1913.48" width="160" height="30" as="geometry" />
        </mxCell>
        <mxCell id="KetMbmqk3JNc-oJEFXoh-6" value="CursorMoveEvent" style="whiteSpace=wrap;html=1;fontStyle=0;fontSize=16;labelBorderColor=none;strokeOpacity=100;fixDash=0;enumerate=0;backgroundOutline=0;fillColor=default;strokeColor=default;fontColor=default;shadow=0;rounded=0;glass=0;" parent="1" vertex="1">
          <mxGeometry x="-790" y="2181.08" width="160" height="30" as="geometry" />
        </mxCell>
        <mxCell id="KetMbmqk3JNc-oJEFXoh-7" value="MousePressEvent" style="whiteSpace=wrap;html=1;fontStyle=0;fontSize=16;labelBorderColor=none;strokeOpacity=100;fixDash=0;enumerate=0;backgroundOutline=0;fillColor=default;strokeColor=default;fontColor=default;shadow=0;rounded=0;glass=0;" parent="1" vertex="1">
          <mxGeometry x="-790" y="2221.08" width="160" height="30" as="geometry" />
        </mxCell>
        <mxCell id="p0tODl2XnqS8dyffp0-s-33" style="edgeStyle=none;shape=connector;rounded=0;comic=0;orthogonalLoop=1;jettySize=auto;html=1;dashed=1;dashPattern=1 2;labelBackgroundColor=default;fontFamily=Helvetica;fontSize=16;fontColor=default;endArrow=classic;strokeColor=default;exitX=1;exitY=0.5;exitDx=0;exitDy=0;" parent="1" source="KetMbmqk3JNc-oJEFXoh-18" target="p0tODl2XnqS8dyffp0-s-29" edge="1">
          <mxGeometry relative="1" as="geometry" />
        </mxCell>
        <mxCell id="p0tODl2XnqS8dyffp0-s-34" value="1" style="edgeLabel;html=1;align=center;verticalAlign=middle;resizable=0;points=[];fontSize=16;fontFamily=Helvetica;fontColor=default;" parent="p0tODl2XnqS8dyffp0-s-33" vertex="1" connectable="0">
          <mxGeometry x="-0.8185" relative="1" as="geometry">
            <mxPoint x="-1" as="offset" />
          </mxGeometry>
        </mxCell>
        <mxCell id="p0tODl2XnqS8dyffp0-s-35" value="N" style="edgeLabel;html=1;align=center;verticalAlign=middle;resizable=0;points=[];fontSize=16;fontFamily=Helvetica;fontColor=default;" parent="p0tODl2XnqS8dyffp0-s-33" vertex="1" connectable="0">
          <mxGeometry x="0.7536" relative="1" as="geometry">
            <mxPoint x="-1" as="offset" />
          </mxGeometry>
        </mxCell>
        <mxCell id="KetMbmqk3JNc-oJEFXoh-18" value="Event" style="whiteSpace=wrap;html=1;fontStyle=0;fontSize=16;labelBorderColor=none;strokeOpacity=100;fixDash=0;enumerate=0;backgroundOutline=0;fillColor=default;strokeColor=default;fontColor=default;shadow=0;rounded=0;glass=0;" parent="1" vertex="1">
          <mxGeometry x="-790" y="2300.68" width="160" height="30" as="geometry" />
        </mxCell>
        <mxCell id="KetMbmqk3JNc-oJEFXoh-40" style="edgeStyle=none;shape=connector;rounded=0;comic=0;orthogonalLoop=1;jettySize=auto;html=1;exitX=0.75;exitY=1;exitDx=0;exitDy=0;dashed=1;dashPattern=1 2;labelBackgroundColor=default;fontFamily=Helvetica;fontSize=16;fontColor=default;endArrow=classic;strokeColor=default;" parent="1" edge="1">
          <mxGeometry relative="1" as="geometry">
            <mxPoint x="-609.9999999999995" y="1943.4800000000005" as="sourcePoint" />
            <mxPoint x="-609.9999999999995" y="1943.4800000000005" as="targetPoint" />
          </mxGeometry>
        </mxCell>
        <mxCell id="KetMbmqk3JNc-oJEFXoh-51" value="ANode" style="whiteSpace=wrap;html=1;fontStyle=0;fontSize=16;labelBorderColor=none;strokeOpacity=100;fixDash=0;enumerate=0;backgroundOutline=0;fillColor=default;strokeColor=default;fontColor=default;shadow=0;rounded=0;glass=0;" parent="1" vertex="1">
          <mxGeometry x="-159.99999999999994" y="1913.48" width="160" height="30" as="geometry" />
        </mxCell>
        <mxCell id="KetMbmqk3JNc-oJEFXoh-52" value="ANodeKey" style="whiteSpace=wrap;html=1;fontStyle=0;fontSize=16;labelBorderColor=none;strokeOpacity=100;fixDash=0;enumerate=0;backgroundOutline=0;fillColor=default;strokeColor=default;fontColor=default;shadow=0;rounded=0;glass=0;" parent="1" vertex="1">
          <mxGeometry x="-159.99999999999994" y="1862.92" width="160" height="30" as="geometry" />
        </mxCell>
        <mxCell id="KetMbmqk3JNc-oJEFXoh-54" value="ANodeCssValue" style="whiteSpace=wrap;html=1;fontStyle=0;fontSize=16;labelBorderColor=none;strokeOpacity=100;fixDash=0;enumerate=0;backgroundOutline=0;fillColor=default;strokeColor=default;fontColor=default;shadow=0;rounded=0;glass=0;" parent="1" vertex="1">
          <mxGeometry x="-159.99999999999994" y="1810" width="160" height="30" as="geometry" />
        </mxCell>
        <mxCell id="qDr9knophbPoSAZElDER-4" style="edgeStyle=none;shape=connector;rounded=0;comic=0;orthogonalLoop=1;jettySize=auto;html=1;dashed=1;dashPattern=1 2;labelBackgroundColor=default;fontFamily=Helvetica;fontSize=16;fontColor=default;endArrow=classic;strokeColor=default;" parent="1" source="KetMbmqk3JNc-oJEFXoh-71" target="KetMbmqk3JNc-oJEFXoh-51" edge="1">
          <mxGeometry relative="1" as="geometry" />
        </mxCell>
        <mxCell id="qDr9knophbPoSAZElDER-5" value="1" style="edgeLabel;html=1;align=center;verticalAlign=middle;resizable=0;points=[];fontSize=16;fontFamily=Helvetica;fontColor=default;" parent="qDr9knophbPoSAZElDER-4" vertex="1" connectable="0">
          <mxGeometry x="-0.7732" y="2" relative="1" as="geometry">
            <mxPoint as="offset" />
          </mxGeometry>
        </mxCell>
        <mxCell id="qDr9knophbPoSAZElDER-6" value="N" style="edgeLabel;html=1;align=center;verticalAlign=middle;resizable=0;points=[];fontSize=16;fontFamily=Helvetica;fontColor=default;" parent="qDr9knophbPoSAZElDER-4" vertex="1" connectable="0">
          <mxGeometry x="0.7106" y="2" relative="1" as="geometry">
            <mxPoint as="offset" />
          </mxGeometry>
        </mxCell>
        <mxCell id="p0tODl2XnqS8dyffp0-s-40" style="edgeStyle=none;shape=connector;rounded=0;comic=0;orthogonalLoop=1;jettySize=auto;html=1;dashed=1;dashPattern=1 2;labelBackgroundColor=default;fontFamily=Helvetica;fontSize=16;fontColor=#000000;endArrow=classic;strokeColor=#66B2FF;endFill=0;sketch=0;shadow=0;startArrow=none;startFill=0;" parent="1" source="KetMbmqk3JNc-oJEFXoh-71" target="p0tODl2XnqS8dyffp0-s-29" edge="1">
          <mxGeometry relative="1" as="geometry" />
        </mxCell>
        <mxCell id="KetMbmqk3JNc-oJEFXoh-71" value="Action" style="whiteSpace=wrap;html=1;fontStyle=0;fontSize=16;labelBorderColor=none;strokeOpacity=100;fixDash=0;enumerate=0;backgroundOutline=0;fillColor=default;strokeColor=default;fontColor=default;shadow=0;rounded=0;glass=0;" parent="1" vertex="1">
          <mxGeometry x="-159.99999999999997" y="2300.68" width="160" height="30" as="geometry" />
        </mxCell>
        <mxCell id="KetMbmqk3JNc-oJEFXoh-171" value="" style="edgeStyle=none;shape=connector;rounded=0;comic=0;orthogonalLoop=1;jettySize=auto;html=1;dashed=1;dashPattern=1 2;labelBackgroundColor=default;fontFamily=Helvetica;fontSize=16;fontColor=default;endArrow=classic;strokeColor=default;" parent="1" source="KetMbmqk3JNc-oJEFXoh-74" target="KetMbmqk3JNc-oJEFXoh-170" edge="1">
          <mxGeometry relative="1" as="geometry" />
        </mxCell>
        <mxCell id="KetMbmqk3JNc-oJEFXoh-173" value="1" style="edgeLabel;html=1;align=center;verticalAlign=middle;resizable=0;points=[];fontSize=16;fontFamily=Helvetica;fontColor=default;" parent="KetMbmqk3JNc-oJEFXoh-171" vertex="1" connectable="0">
          <mxGeometry x="-0.5917" y="-2" relative="1" as="geometry">
            <mxPoint as="offset" />
          </mxGeometry>
        </mxCell>
        <mxCell id="KetMbmqk3JNc-oJEFXoh-174" value="N" style="edgeLabel;html=1;align=center;verticalAlign=middle;resizable=0;points=[];fontSize=16;fontFamily=Helvetica;fontColor=default;" parent="KetMbmqk3JNc-oJEFXoh-171" vertex="1" connectable="0">
          <mxGeometry x="0.5125" y="1" relative="1" as="geometry">
            <mxPoint as="offset" />
          </mxGeometry>
        </mxCell>
        <mxCell id="qDr9knophbPoSAZElDER-2" style="rounded=0;orthogonalLoop=1;jettySize=auto;html=1;fontSize=16;strokeColor=#66B2FF;fontColor=#000000;comic=0;dashed=1;dashPattern=1 2;endFill=0;sketch=0;shadow=0;startArrow=none;startFill=0;" parent="1" source="KetMbmqk3JNc-oJEFXoh-74" edge="1">
          <mxGeometry relative="1" as="geometry">
            <mxPoint x="-74.5199999999999" y="2329.91" as="targetPoint" />
          </mxGeometry>
        </mxCell>
        <mxCell id="KetMbmqk3JNc-oJEFXoh-74" value="multikey" style="whiteSpace=wrap;html=1;fontStyle=0;fontSize=16;labelBorderColor=none;strokeOpacity=100;fixDash=0;enumerate=0;backgroundOutline=0;fillColor=default;strokeColor=default;fontColor=default;shadow=0;rounded=0;glass=0;" parent="1" vertex="1">
          <mxGeometry x="-156.31" y="2374.68" width="160" height="30" as="geometry" />
        </mxCell>
        <mxCell id="KetMbmqk3JNc-oJEFXoh-112" style="edgeStyle=none;shape=connector;rounded=0;comic=0;orthogonalLoop=1;jettySize=auto;html=1;entryX=1;entryY=0.5;entryDx=0;entryDy=0;dashed=1;dashPattern=1 2;labelBackgroundColor=default;fontFamily=Helvetica;fontSize=16;fontColor=default;endArrow=classic;strokeColor=default;exitX=0;exitY=0.5;exitDx=0;exitDy=0;" parent="1" source="KetMbmqk3JNc-oJEFXoh-133" target="KetMbmqk3JNc-oJEFXoh-71" edge="1">
          <mxGeometry relative="1" as="geometry">
            <mxPoint x="41.79" y="2309.68" as="sourcePoint" />
          </mxGeometry>
        </mxCell>
        <mxCell id="KetMbmqk3JNc-oJEFXoh-134" value="N" style="edgeLabel;html=1;align=center;verticalAlign=middle;resizable=0;points=[];fontSize=16;fontFamily=Helvetica;fontColor=default;" parent="KetMbmqk3JNc-oJEFXoh-112" vertex="1" connectable="0">
          <mxGeometry x="0.6266" y="1" relative="1" as="geometry">
            <mxPoint as="offset" />
          </mxGeometry>
        </mxCell>
        <mxCell id="KetMbmqk3JNc-oJEFXoh-135" value="1" style="edgeLabel;html=1;align=center;verticalAlign=middle;resizable=0;points=[];fontSize=16;fontFamily=Helvetica;fontColor=default;" parent="KetMbmqk3JNc-oJEFXoh-112" vertex="1" connectable="0">
          <mxGeometry x="-0.6579" relative="1" as="geometry">
            <mxPoint as="offset" />
          </mxGeometry>
        </mxCell>
        <mxCell id="KetMbmqk3JNc-oJEFXoh-84" value="double_click" style="whiteSpace=wrap;html=1;fontStyle=0;fontSize=16;labelBorderColor=none;strokeOpacity=100;fixDash=0;enumerate=0;backgroundOutline=0;fillColor=default;strokeColor=default;fontColor=default;shadow=0;rounded=0;glass=0;" parent="1" vertex="1">
          <mxGeometry x="-156.30999999999997" y="2597.91" width="160" height="30" as="geometry" />
        </mxCell>
        <mxCell id="KetMbmqk3JNc-oJEFXoh-93" value="scroll_out" style="whiteSpace=wrap;html=1;fontStyle=0;fontSize=16;labelBorderColor=none;strokeOpacity=100;fixDash=0;enumerate=0;backgroundOutline=0;fillColor=default;strokeColor=default;fontColor=default;shadow=0;rounded=0;glass=0;" parent="1" vertex="1">
          <mxGeometry x="-159.99999999999997" y="2553.68" width="160" height="30" as="geometry" />
        </mxCell>
        <mxCell id="KetMbmqk3JNc-oJEFXoh-94" value="scroll_in" style="whiteSpace=wrap;html=1;fontStyle=0;fontSize=16;labelBorderColor=none;strokeOpacity=100;fixDash=0;enumerate=0;backgroundOutline=0;fillColor=default;strokeColor=default;fontColor=default;shadow=0;rounded=0;glass=0;" parent="1" vertex="1">
          <mxGeometry x="-159.99999999999997" y="2503.68" width="160" height="30" as="geometry" />
        </mxCell>
        <mxCell id="KetMbmqk3JNc-oJEFXoh-131" value="key_up" style="whiteSpace=wrap;html=1;fontStyle=0;fontSize=16;labelBorderColor=none;strokeOpacity=100;fixDash=0;enumerate=0;backgroundOutline=0;fillColor=default;strokeColor=default;fontColor=default;shadow=0;rounded=0;glass=0;" parent="1" vertex="1">
          <mxGeometry x="321.1" y="2394.68" width="160" height="30" as="geometry" />
        </mxCell>
        <mxCell id="KetMbmqk3JNc-oJEFXoh-132" value="key_down" style="whiteSpace=wrap;html=1;fontStyle=0;fontSize=16;labelBorderColor=none;strokeOpacity=100;fixDash=0;enumerate=0;backgroundOutline=0;fillColor=default;strokeColor=default;fontColor=default;shadow=0;rounded=0;glass=0;" parent="1" vertex="1">
          <mxGeometry x="321.1" y="2354.68" width="160" height="30" as="geometry" />
        </mxCell>
        <mxCell id="KetMbmqk3JNc-oJEFXoh-133" value="ActionState" style="whiteSpace=wrap;html=1;fontStyle=0;fontSize=16;labelBorderColor=none;strokeOpacity=100;fixDash=0;enumerate=0;backgroundOutline=0;fillColor=default;strokeColor=default;fontColor=default;shadow=0;rounded=0;glass=0;" parent="1" vertex="1">
          <mxGeometry x="71.78999999999999" y="2300.68" width="160" height="30" as="geometry" />
        </mxCell>
        <mxCell id="KetMbmqk3JNc-oJEFXoh-164" value="" style="edgeStyle=none;shape=connector;rounded=0;comic=0;orthogonalLoop=1;jettySize=auto;html=1;dashed=1;dashPattern=1 2;labelBackgroundColor=default;fontFamily=Helvetica;fontSize=16;fontColor=default;endArrow=classic;strokeColor=default;" parent="1" source="KetMbmqk3JNc-oJEFXoh-158" target="KetMbmqk3JNc-oJEFXoh-163" edge="1">
          <mxGeometry relative="1" as="geometry" />
        </mxCell>
        <mxCell id="KetMbmqk3JNc-oJEFXoh-166" value="1" style="edgeLabel;html=1;align=center;verticalAlign=middle;resizable=0;points=[];fontSize=16;fontFamily=Helvetica;fontColor=default;" parent="KetMbmqk3JNc-oJEFXoh-164" vertex="1" connectable="0">
          <mxGeometry x="-0.675" y="1" relative="1" as="geometry">
            <mxPoint as="offset" />
          </mxGeometry>
        </mxCell>
        <mxCell id="KetMbmqk3JNc-oJEFXoh-167" value="N" style="edgeLabel;html=1;align=center;verticalAlign=middle;resizable=0;points=[];fontSize=16;fontFamily=Helvetica;fontColor=default;" parent="KetMbmqk3JNc-oJEFXoh-164" vertex="1" connectable="0">
          <mxGeometry x="0.5333" y="-2" relative="1" as="geometry">
            <mxPoint x="-3" y="-4" as="offset" />
          </mxGeometry>
        </mxCell>
        <mxCell id="KetMbmqk3JNc-oJEFXoh-158" value="mutidrag" style="html=1;fontStyle=0;fontSize=16;labelBorderColor=none;strokeOpacity=100;fixDash=0;enumerate=0;backgroundOutline=0;fillColor=default;strokeColor=default;fontColor=default;shadow=0;rounded=0;glass=0;whiteSpace=wrap;" parent="1" vertex="1">
          <mxGeometry x="-160" y="2456.68" width="160" height="30" as="geometry" />
        </mxCell>
        <mxCell id="KetMbmqk3JNc-oJEFXoh-159" value="drag_start" style="html=1;fontStyle=0;fontSize=16;labelBorderColor=none;strokeOpacity=100;fixDash=0;enumerate=0;backgroundOutline=0;fillColor=default;strokeColor=default;fontColor=default;shadow=0;rounded=0;glass=0;whiteSpace=wrap;" parent="1" vertex="1">
          <mxGeometry x="321.1" y="2486.68" width="160" height="30" as="geometry" />
        </mxCell>
        <mxCell id="KetMbmqk3JNc-oJEFXoh-165" value="" style="edgeStyle=none;shape=connector;rounded=0;comic=0;orthogonalLoop=1;jettySize=auto;html=1;dashed=1;dashPattern=1 2;labelBackgroundColor=default;fontFamily=Helvetica;fontSize=16;fontColor=default;endArrow=classic;strokeColor=default;exitX=1;exitY=0.5;exitDx=0;exitDy=0;entryX=0;entryY=0.5;entryDx=0;entryDy=0;" parent="1" source="KetMbmqk3JNc-oJEFXoh-163" target="KetMbmqk3JNc-oJEFXoh-159" edge="1">
          <mxGeometry relative="1" as="geometry" />
        </mxCell>
        <mxCell id="KetMbmqk3JNc-oJEFXoh-176" style="shape=connector;rounded=0;comic=0;orthogonalLoop=1;jettySize=auto;html=1;entryX=0;entryY=0.5;entryDx=0;entryDy=0;dashed=1;dashPattern=1 2;labelBackgroundColor=default;fontFamily=Helvetica;fontSize=16;fontColor=default;endArrow=classic;strokeColor=default;exitX=1;exitY=0.5;exitDx=0;exitDy=0;" parent="1" source="KetMbmqk3JNc-oJEFXoh-163" target="KetMbmqk3JNc-oJEFXoh-175" edge="1">
          <mxGeometry relative="1" as="geometry" />
        </mxCell>
        <mxCell id="KetMbmqk3JNc-oJEFXoh-177" value="" style="edgeStyle=none;shape=connector;rounded=0;comic=0;orthogonalLoop=1;jettySize=auto;html=1;dashed=1;dashPattern=1 2;labelBackgroundColor=default;fontFamily=Helvetica;fontSize=16;fontColor=default;endArrow=classic;strokeColor=default;" parent="1" source="KetMbmqk3JNc-oJEFXoh-163" target="KetMbmqk3JNc-oJEFXoh-170" edge="1">
          <mxGeometry relative="1" as="geometry" />
        </mxCell>
        <mxCell id="KetMbmqk3JNc-oJEFXoh-163" value="drag" style="html=1;fontStyle=0;fontSize=16;labelBorderColor=none;strokeOpacity=100;fixDash=0;enumerate=0;backgroundOutline=0;fillColor=default;strokeColor=default;fontColor=default;shadow=0;rounded=0;glass=0;whiteSpace=wrap;" parent="1" vertex="1">
          <mxGeometry x="71.79" y="2446.68" width="160" height="40" as="geometry" />
        </mxCell>
        <mxCell id="KetMbmqk3JNc-oJEFXoh-170" value="key" style="html=1;fontStyle=0;fontSize=16;labelBorderColor=none;strokeOpacity=100;fixDash=0;enumerate=0;backgroundOutline=0;fillColor=default;strokeColor=default;fontColor=default;shadow=0;rounded=0;glass=0;whiteSpace=wrap;" parent="1" vertex="1">
          <mxGeometry x="71.79" y="2374.68" width="160" height="30" as="geometry" />
        </mxCell>
        <mxCell id="KetMbmqk3JNc-oJEFXoh-175" value="drag_end" style="html=1;fontStyle=0;fontSize=16;labelBorderColor=none;strokeOpacity=100;fixDash=0;enumerate=0;backgroundOutline=0;fillColor=default;strokeColor=default;fontColor=default;shadow=0;rounded=0;glass=0;whiteSpace=wrap;" parent="1" vertex="1">
          <mxGeometry x="321.1" y="2450.68" width="160" height="30" as="geometry" />
        </mxCell>
        <mxCell id="qDr9knophbPoSAZElDER-27" style="edgeStyle=none;shape=connector;rounded=0;comic=0;orthogonalLoop=1;jettySize=auto;html=1;dashed=1;dashPattern=1 2;labelBackgroundColor=default;fontFamily=Helvetica;fontSize=16;fontColor=default;endArrow=classic;strokeColor=default;entryX=0.5;entryY=0;entryDx=0;entryDy=0;exitX=0;exitY=0.5;exitDx=0;exitDy=0;" parent="1" source="qDr9knophbPoSAZElDER-26" target="KetMbmqk3JNc-oJEFXoh-71" edge="1">
          <mxGeometry relative="1" as="geometry">
            <mxPoint x="-171.9" y="2309.68" as="targetPoint" />
          </mxGeometry>
        </mxCell>
        <mxCell id="qDr9knophbPoSAZElDER-30" value="1" style="edgeLabel;html=1;align=center;verticalAlign=middle;resizable=0;points=[];fontSize=16;fontFamily=Helvetica;fontColor=default;" parent="qDr9knophbPoSAZElDER-27" vertex="1" connectable="0">
          <mxGeometry x="-0.7952" y="-1" relative="1" as="geometry">
            <mxPoint as="offset" />
          </mxGeometry>
        </mxCell>
        <mxCell id="qDr9knophbPoSAZElDER-31" value="1" style="edgeLabel;html=1;align=center;verticalAlign=middle;resizable=0;points=[];fontSize=16;fontFamily=Helvetica;fontColor=default;" parent="qDr9knophbPoSAZElDER-27" vertex="1" connectable="0">
          <mxGeometry x="0.7365" relative="1" as="geometry">
            <mxPoint as="offset" />
          </mxGeometry>
        </mxCell>
        <mxCell id="qDr9knophbPoSAZElDER-26" value="InRangeFunc" style="whiteSpace=wrap;html=1;fontStyle=0;fontSize=16;labelBorderColor=none;strokeOpacity=100;fixDash=0;enumerate=0;backgroundOutline=0;fillColor=default;strokeColor=default;fontColor=default;shadow=0;rounded=0;glass=0;" parent="1" vertex="1">
          <mxGeometry x="71.79000000000005" y="2221.08" width="160" height="30" as="geometry" />
        </mxCell>
        <mxCell id="jTYFFrn-AGd4crBV5h1Q-8" style="edgeStyle=none;shape=connector;rounded=0;comic=0;orthogonalLoop=1;jettySize=auto;html=1;dashed=1;dashPattern=1 2;labelBackgroundColor=default;fontFamily=Helvetica;fontSize=16;fontColor=#000000;endArrow=classic;strokeColor=#66B2FF;entryX=0.5;entryY=1;entryDx=0;entryDy=0;sketch=0;shadow=0;startArrow=none;startFill=0;" parent="1" target="b0SShiwwmZGZxzh6fXLt-1" edge="1">
          <mxGeometry relative="1" as="geometry">
            <mxPoint x="459.99999999999955" y="980" as="targetPoint" />
            <mxPoint x="431" y="1020" as="sourcePoint" />
          </mxGeometry>
        </mxCell>
        <mxCell id="p0tODl2XnqS8dyffp0-s-2" value="N" style="edgeLabel;html=1;align=center;verticalAlign=middle;resizable=0;points=[];" parent="jTYFFrn-AGd4crBV5h1Q-8" vertex="1" connectable="0">
          <mxGeometry x="0.8152" y="2" relative="1" as="geometry">
            <mxPoint as="offset" />
          </mxGeometry>
        </mxCell>
        <mxCell id="p0tODl2XnqS8dyffp0-s-20" style="edgeStyle=none;shape=connector;rounded=0;comic=0;orthogonalLoop=1;jettySize=auto;html=1;entryX=0.5;entryY=0;entryDx=0;entryDy=0;dashed=1;dashPattern=1 2;labelBackgroundColor=default;fontFamily=Helvetica;fontSize=16;fontColor=default;endArrow=classic;strokeColor=default;exitX=0.5;exitY=1;exitDx=0;exitDy=0;" parent="1" source="bB3FUnjyc7xPwZkcXDjZ-1" target="GgQH_QHnAQB_JmUzbBLz-4" edge="1">
          <mxGeometry relative="1" as="geometry" />
        </mxCell>
        <mxCell id="p0tODl2XnqS8dyffp0-s-21" value="N" style="edgeLabel;html=1;align=center;verticalAlign=middle;resizable=0;points=[];fontSize=16;fontFamily=Helvetica;fontColor=default;" parent="p0tODl2XnqS8dyffp0-s-20" vertex="1" connectable="0">
          <mxGeometry x="0.7338" relative="1" as="geometry">
            <mxPoint y="1" as="offset" />
          </mxGeometry>
        </mxCell>
        <mxCell id="rj_vMMQdR87xLDk41NYo-2" style="edgeStyle=none;shape=connector;rounded=0;comic=0;orthogonalLoop=1;jettySize=auto;html=1;dashed=1;dashPattern=1 2;labelBackgroundColor=default;fontFamily=Helvetica;fontSize=16;fontColor=default;endArrow=classic;strokeColor=default;" edge="1" parent="1" source="bB3FUnjyc7xPwZkcXDjZ-1">
          <mxGeometry relative="1" as="geometry">
            <mxPoint x="431" y="1300" as="targetPoint" />
          </mxGeometry>
        </mxCell>
        <mxCell id="rj_vMMQdR87xLDk41NYo-6" value="1" style="edgeLabel;html=1;align=center;verticalAlign=middle;resizable=0;points=[];fontSize=16;fontFamily=Helvetica;fontColor=default;" vertex="1" connectable="0" parent="rj_vMMQdR87xLDk41NYo-2">
          <mxGeometry x="-0.671" y="1" relative="1" as="geometry">
            <mxPoint as="offset" />
          </mxGeometry>
        </mxCell>
        <mxCell id="rj_vMMQdR87xLDk41NYo-7" value="N" style="edgeLabel;html=1;align=center;verticalAlign=middle;resizable=0;points=[];" vertex="1" connectable="0" parent="rj_vMMQdR87xLDk41NYo-2">
          <mxGeometry x="0.7758" y="-3" relative="1" as="geometry">
            <mxPoint as="offset" />
          </mxGeometry>
        </mxCell>
        <mxCell id="bB3FUnjyc7xPwZkcXDjZ-1" value="ComNode(Object)" style="whiteSpace=wrap;html=1;shadow=0;fontStyle=0;strokeColor=default;fontSize=16;strokeOpacity=100;fixDash=0;enumerate=0;backgroundOutline=0;fillColor=default;fontColor=default;labelBorderColor=none;rounded=0;glass=0;" parent="1" vertex="1">
          <mxGeometry x="343" y="1020.0000000000001" width="176" height="30" as="geometry" />
        </mxCell>
        <mxCell id="jTYFFrn-AGd4crBV5h1Q-6" value="" style="edgeStyle=none;shape=connector;rounded=0;comic=0;orthogonalLoop=1;jettySize=auto;html=1;dashed=1;dashPattern=1 2;labelBackgroundColor=default;fontFamily=Helvetica;fontSize=16;fontColor=default;endArrow=none;strokeColor=default;" parent="1" source="AO8aFez6V7OC_21t-UyS-113" target="bB3FUnjyc7xPwZkcXDjZ-1" edge="1">
          <mxGeometry relative="1" as="geometry">
            <mxPoint x="460" y="1090" as="targetPoint" />
            <mxPoint x="432.90380322990086" y="876.51" as="sourcePoint" />
          </mxGeometry>
        </mxCell>
        <mxCell id="jTYFFrn-AGd4crBV5h1Q-10" value="StaticLayer" style="whiteSpace=wrap;html=1;fontStyle=0;fontSize=16;strokeOpacity=100;fixDash=0;enumerate=0;backgroundOutline=0;fillColor=default;strokeColor=default;fontColor=default;labelBorderColor=none;shadow=1;rounded=0;glass=0;" parent="1" vertex="1">
          <mxGeometry x="1043.33" y="670" width="100" height="30" as="geometry" />
        </mxCell>
        <mxCell id="rj_vMMQdR87xLDk41NYo-10" style="edgeStyle=none;shape=connector;rounded=0;comic=0;orthogonalLoop=1;jettySize=auto;html=1;entryX=0;entryY=0.5;entryDx=0;entryDy=0;dashed=1;dashPattern=1 2;labelBackgroundColor=default;strokeColor=default;fontFamily=Helvetica;fontSize=16;fontColor=default;endArrow=classic;" edge="1" parent="1" source="GgQH_QHnAQB_JmUzbBLz-4" target="rj_vMMQdR87xLDk41NYo-13">
          <mxGeometry relative="1" as="geometry" />
        </mxCell>
        <mxCell id="GgQH_QHnAQB_JmUzbBLz-4" value="NodeMap" style="whiteSpace=wrap;html=1;shadow=0;fontStyle=0;strokeColor=default;fontSize=16;strokeOpacity=100;fixDash=0;enumerate=0;backgroundOutline=0;" parent="1" vertex="1">
          <mxGeometry x="-494" y="1302.08" width="160" height="30" as="geometry" />
        </mxCell>
        <mxCell id="p0tODl2XnqS8dyffp0-s-23" value="Source" style="whiteSpace=wrap;html=1;fontStyle=0;fontSize=16;labelBorderColor=none;strokeOpacity=100;fixDash=0;enumerate=0;backgroundOutline=0;" parent="1" vertex="1">
          <mxGeometry x="181.5" y="489.55000000000007" width="120" height="30" as="geometry" />
        </mxCell>
        <mxCell id="p0tODl2XnqS8dyffp0-s-25" style="edgeStyle=none;shape=connector;rounded=0;comic=0;orthogonalLoop=1;jettySize=auto;html=1;dashed=1;dashPattern=1 2;labelBackgroundColor=default;fontFamily=Helvetica;fontSize=16;fontColor=#000000;endArrow=classic;strokeColor=#66B2FF;sketch=0;shadow=0;startArrow=none;startFill=0;" parent="1" source="p0tODl2XnqS8dyffp0-s-24" target="p0tODl2XnqS8dyffp0-s-23" edge="1">
          <mxGeometry relative="1" as="geometry" />
        </mxCell>
        <mxCell id="p0tODl2XnqS8dyffp0-s-24" value="FRApplication" style="whiteSpace=wrap;html=1;fontStyle=0;fontSize=16;labelBorderColor=none;strokeOpacity=100;fixDash=0;enumerate=0;backgroundOutline=0;" parent="1" vertex="1">
          <mxGeometry x="180" y="650.0000000000001" width="120" height="30" as="geometry" />
        </mxCell>
        <mxCell id="p0tODl2XnqS8dyffp0-s-41" style="edgeStyle=none;shape=connector;rounded=0;comic=0;orthogonalLoop=1;jettySize=auto;html=1;entryX=0.5;entryY=1;entryDx=0;entryDy=0;dashed=1;dashPattern=1 2;labelBackgroundColor=default;fontFamily=Helvetica;fontSize=16;fontColor=default;endArrow=classic;strokeColor=default;" parent="1" source="p0tODl2XnqS8dyffp0-s-29" target="KetMbmqk3JNc-oJEFXoh-4" edge="1">
          <mxGeometry relative="1" as="geometry" />
        </mxCell>
        <mxCell id="p0tODl2XnqS8dyffp0-s-29" value="EventNode" style="whiteSpace=wrap;html=1;fontStyle=0;fontSize=16;labelBorderColor=none;strokeOpacity=100;fixDash=0;enumerate=0;backgroundOutline=0;fillColor=default;strokeColor=default;fontColor=default;shadow=0;rounded=0;glass=0;" parent="1" vertex="1">
          <mxGeometry x="-500" y="2300.68" width="160" height="30" as="geometry" />
        </mxCell>
        <mxCell id="jpcHlJna4Ol9fppMGmjO-3" value="CstText" style="whiteSpace=wrap;html=1;shadow=0;fontStyle=0;strokeColor=#2D7600;fontSize=16;strokeOpacity=100;labelBackgroundColor=none;fillColor=#60a917;fixDash=0;enumerate=0;backgroundOutline=0;fontColor=#ffffff;labelBorderColor=none;rounded=0;glass=0;" parent="1" vertex="1">
          <mxGeometry x="1160" y="1280.5399999999997" width="130" height="30" as="geometry" />
        </mxCell>
        <mxCell id="jpcHlJna4Ol9fppMGmjO-6" value="FRText(Pango)" style="whiteSpace=wrap;html=1;shadow=0;fontStyle=0;strokeColor=default;fontSize=16;strokeOpacity=100;labelBackgroundColor=none;fillColor=default;fixDash=0;enumerate=0;backgroundOutline=0;" parent="1" vertex="1">
          <mxGeometry x="1360" y="1280.5399999999997" width="130" height="30" as="geometry" />
        </mxCell>
        <mxCell id="jpcHlJna4Ol9fppMGmjO-7" value="FRContext" style="whiteSpace=wrap;html=1;shadow=0;fontStyle=0;strokeColor=default;fontSize=16;strokeOpacity=100;labelBackgroundColor=none;fillColor=default;fixDash=0;enumerate=0;backgroundOutline=0;" parent="1" vertex="1">
          <mxGeometry x="1360" y="1348.4599999999998" width="130" height="30" as="geometry" />
        </mxCell>
        <mxCell id="9Eu4qxXj4A-x9DAmZvT_-3" value="DrawQueue" style="whiteSpace=wrap;html=1;fontStyle=0;fontSize=16;strokeOpacity=100;fixDash=0;enumerate=0;backgroundOutline=0;" parent="1" vertex="1">
          <mxGeometry x="1730" y="366.9" width="100" height="30" as="geometry" />
        </mxCell>
        <mxCell id="rj_vMMQdR87xLDk41NYo-1" value="PropPair" style="whiteSpace=wrap;html=1;shadow=0;fontStyle=0;strokeColor=default;fontSize=16;strokeOpacity=100;fixDash=0;enumerate=0;backgroundOutline=0;fillColor=default;fontColor=default;labelBorderColor=none;rounded=0;glass=0;" vertex="1" parent="1">
          <mxGeometry x="440" y="1169" width="176" height="30" as="geometry" />
        </mxCell>
        <mxCell id="rj_vMMQdR87xLDk41NYo-13" value="PropValue" style="whiteSpace=wrap;html=1;shadow=0;fontStyle=0;strokeColor=default;fontSize=16;strokeOpacity=100;fixDash=0;enumerate=0;backgroundOutline=0;fillColor=default;fontColor=default;labelBorderColor=none;rounded=0;glass=0;" vertex="1" parent="1">
          <mxGeometry x="343" y="1302.08" width="176" height="30" as="geometry" />
        </mxCell>
        <mxCell id="rj_vMMQdR87xLDk41NYo-22" style="edgeStyle=none;rounded=0;comic=0;orthogonalLoop=1;jettySize=auto;html=1;entryX=0.5;entryY=1;entryDx=0;entryDy=0;dashed=1;dashPattern=1 2;labelBackgroundColor=default;strokeColor=default;fontFamily=Helvetica;fontSize=16;fontColor=default;endArrow=classic;exitX=0.5;exitY=0;exitDx=0;exitDy=0;" edge="1" parent="1" source="GgQH_QHnAQB_JmUzbBLz-4" target="rj_vMMQdR87xLDk41NYo-15">
          <mxGeometry relative="1" as="geometry" />
        </mxCell>
        <mxCell id="rj_vMMQdR87xLDk41NYo-23" value="N" style="edgeLabel;html=1;align=center;verticalAlign=middle;resizable=0;points=[];fontSize=16;fontFamily=Helvetica;fontColor=default;" vertex="1" connectable="0" parent="rj_vMMQdR87xLDk41NYo-22">
          <mxGeometry x="-0.7911" relative="1" as="geometry">
            <mxPoint as="offset" />
          </mxGeometry>
        </mxCell>
        <mxCell id="rj_vMMQdR87xLDk41NYo-24" value="1" style="edgeLabel;html=1;align=center;verticalAlign=middle;resizable=0;points=[];fontSize=16;fontFamily=Helvetica;fontColor=default;" vertex="1" connectable="0" parent="rj_vMMQdR87xLDk41NYo-22">
          <mxGeometry x="0.7957" y="2" relative="1" as="geometry">
            <mxPoint x="-2" as="offset" />
          </mxGeometry>
        </mxCell>
        <mxCell id="rj_vMMQdR87xLDk41NYo-26" value="ref" style="edgeLabel;html=1;align=center;verticalAlign=middle;resizable=0;points=[];fontSize=16;fontFamily=Helvetica;fontColor=default;" vertex="1" connectable="0" parent="rj_vMMQdR87xLDk41NYo-22">
          <mxGeometry x="0.077" y="2" relative="1" as="geometry">
            <mxPoint as="offset" />
          </mxGeometry>
        </mxCell>
        <mxCell id="rj_vMMQdR87xLDk41NYo-15" value="PropMap" style="whiteSpace=wrap;html=1;shadow=0;fontStyle=0;strokeColor=default;fontSize=16;strokeOpacity=100;fixDash=0;enumerate=0;backgroundOutline=0;" vertex="1" parent="1">
          <mxGeometry x="-493" y="1020" width="160" height="30" as="geometry" />
        </mxCell>
      </root>
    </mxGraphModel>
  </diagram>
</mxfile>
